<svg width="437" height="438" viewBox="0 0 437 438" fill="none" xmlns="http://www.w3.org/2000/svg">
<path opacity="0.7" d="M59.107 143.985C59.107 143.985 34.7137 205.627 68.9923 267.72C103.27 329.814 173.89 362.597 230.408 390.637C286.927 418.677 345.616 405.022 373.506 359.093C401.396 313.165 363.141 280.378 363.096 214.881C363.051 149.384 373.112 132.043 336.877 76.7085C300.642 21.3733 211.696 9.12681 144.457 50.1673C77.2202 91.2079 59.107 143.985 59.107 143.985Z" fill="white"/>
<path d="M45.1523 405.426H393.496" stroke="#263238" stroke-width="0.874" stroke-miterlimit="10" stroke-linecap="round" stroke-linejoin="round"/>
<path d="M79.7373 125.848H101.541V117.088H79.7373V125.848Z" stroke="#263238" stroke-width="0.874" stroke-miterlimit="10" stroke-linecap="round" stroke-linejoin="round"/>
<path d="M97.2002 135.87H119.004V127.111H97.2002V135.87Z" stroke="#263238" stroke-width="0.874" stroke-miterlimit="10" stroke-linecap="round" stroke-linejoin="round"/>
<path d="M147.258 192.655H169.062V183.896H147.258V192.655Z" stroke="#263238" stroke-width="0.874" stroke-miterlimit="10" stroke-linecap="round" stroke-linejoin="round"/>
<path d="M136.356 204.22H158.159V195.461H136.356V204.22Z" stroke="#263238" stroke-width="0.874" stroke-miterlimit="10" stroke-linecap="round" stroke-linejoin="round"/>
<path d="M68.8359 274.927H90.6396V266.168H68.8359V274.927Z" stroke="#263238" stroke-width="0.874" stroke-miterlimit="10" stroke-linecap="round" stroke-linejoin="round"/>
<path d="M80.7812 285.82H102.585V277.061H80.7812V285.82Z" stroke="#263238" stroke-width="0.874" stroke-miterlimit="10" stroke-linecap="round" stroke-linejoin="round"/>
<path d="M207.794 296.227H229.597V287.467H207.794V296.227Z" stroke="#263238" stroke-width="0.874" stroke-miterlimit="10" stroke-linecap="round" stroke-linejoin="round"/>
<path d="M196.273 307.887H218.076V299.127H196.273V307.887Z" stroke="#263238" stroke-width="0.874" stroke-miterlimit="10" stroke-linecap="round" stroke-linejoin="round"/>
<path d="M75.7227 353.655H97.5263V344.896H75.7227V353.655Z" stroke="#263238" stroke-width="0.874" stroke-miterlimit="10" stroke-linecap="round" stroke-linejoin="round"/>
<path d="M93.2676 274.927H115.071V266.168H93.2676V274.927Z" stroke="#263238" stroke-width="0.874" stroke-miterlimit="10" stroke-linecap="round" stroke-linejoin="round"/>
<path d="M196.918 240.715C175.719 240.947 153.869 240.947 133.326 240.715" stroke="#263238" stroke-width="0.874" stroke-miterlimit="10" stroke-linecap="round" stroke-linejoin="round"/>
<path d="M205.65 240.715C203.874 240.715 202.097 240.715 200.321 240.715" stroke="#263238" stroke-width="0.874" stroke-miterlimit="10" stroke-linecap="round" stroke-linejoin="round"/>
<path d="M378.79 364.535C357.591 364.768 335.741 364.768 315.198 364.535" stroke="#263238" stroke-width="0.874" stroke-miterlimit="10" stroke-linecap="round" stroke-linejoin="round"/>
<path d="M387.521 364.535C385.745 364.535 383.968 364.535 382.192 364.535" stroke="#263238" stroke-width="0.874" stroke-miterlimit="10" stroke-linecap="round" stroke-linejoin="round"/>
<path d="M288.189 97.7812C266.99 98.0138 245.14 98.0138 224.597 97.7812" stroke="#263238" stroke-width="0.874" stroke-miterlimit="10" stroke-linecap="round" stroke-linejoin="round"/>
<path d="M296.92 97.7812C295.144 97.7812 293.368 97.7812 291.592 97.7812" stroke="#263238" stroke-width="0.874" stroke-miterlimit="10" stroke-linecap="round" stroke-linejoin="round"/>
<path d="M99.8623 162.09C90.5621 162.248 81.2592 162.279 71.959 162.189" stroke="#263238" stroke-width="0.874" stroke-miterlimit="10" stroke-linecap="round" stroke-linejoin="round"/>
<path d="M279.481 346.965C270.18 347.123 260.878 347.154 251.576 347.064" stroke="#263238" stroke-width="0.874" stroke-miterlimit="10" stroke-linecap="round" stroke-linejoin="round"/>
<path d="M96.5498 331.121C97.5523 331.121 98.5548 331.121 99.5564 331.121" stroke="#263238" stroke-width="0.874" stroke-miterlimit="10" stroke-linecap="round" stroke-linejoin="round"/>
<path d="M64.8652 331.121C74.2887 331.121 83.7113 331.121 93.1347 331.121" stroke="#263238" stroke-width="0.874" stroke-miterlimit="10" stroke-linecap="round" stroke-linejoin="round"/>
<path d="M171.53 74.3516C172.533 74.3516 173.535 74.3516 174.538 74.3516" stroke="#263238" stroke-width="0.874" stroke-miterlimit="10" stroke-linecap="round" stroke-linejoin="round"/>
<path d="M139.846 74.3516C149.27 74.3516 158.692 74.3516 168.116 74.3516" stroke="#263238" stroke-width="0.874" stroke-miterlimit="10" stroke-linecap="round" stroke-linejoin="round"/>
<path d="M363.305 321.301H341.501V330.06H363.305V321.301Z" stroke="#263238" stroke-width="0.874" stroke-miterlimit="10" stroke-linecap="round" stroke-linejoin="round"/>
<path d="M345.842 311.277H324.038V320.037H345.842V311.277Z" stroke="#263238" stroke-width="0.874" stroke-miterlimit="10" stroke-linecap="round" stroke-linejoin="round"/>
<path d="M295.784 254.492H273.981V263.251H295.784V254.492Z" stroke="#263238" stroke-width="0.874" stroke-miterlimit="10" stroke-linecap="round" stroke-linejoin="round"/>
<path d="M306.686 242.93H284.883V251.689H306.686V242.93Z" stroke="#263238" stroke-width="0.874" stroke-miterlimit="10" stroke-linecap="round" stroke-linejoin="round"/>
<path d="M374.207 172.223H352.404V180.982H374.207V172.223Z" stroke="#263238" stroke-width="0.874" stroke-miterlimit="10" stroke-linecap="round" stroke-linejoin="round"/>
<path d="M362.261 161.324H340.457V170.083H362.261V161.324Z" stroke="#263238" stroke-width="0.874" stroke-miterlimit="10" stroke-linecap="round" stroke-linejoin="round"/>
<path d="M235.249 150.918H213.446V159.677H235.249V150.918Z" stroke="#263238" stroke-width="0.874" stroke-miterlimit="10" stroke-linecap="round" stroke-linejoin="round"/>
<path d="M246.77 139.258H224.967V148.017H246.77V139.258Z" stroke="#263238" stroke-width="0.874" stroke-miterlimit="10" stroke-linecap="round" stroke-linejoin="round"/>
<path d="M316.426 74.6953H294.623V83.4545H316.426V74.6953Z" stroke="#263238" stroke-width="0.874" stroke-miterlimit="10" stroke-linecap="round" stroke-linejoin="round"/>
<path d="M349.775 172.223H327.971V180.982H349.775V172.223Z" stroke="#263238" stroke-width="0.874" stroke-miterlimit="10" stroke-linecap="round" stroke-linejoin="round"/>
<path d="M246.125 206.435C267.323 206.204 289.173 206.204 309.717 206.435" stroke="#263238" stroke-width="0.874" stroke-miterlimit="10" stroke-linecap="round" stroke-linejoin="round"/>
<path d="M237.392 206.43C239.169 206.43 240.945 206.43 242.721 206.43" stroke="#263238" stroke-width="0.874" stroke-miterlimit="10" stroke-linecap="round" stroke-linejoin="round"/>
<path d="M343.18 285.059C352.48 284.901 361.783 284.87 371.084 284.96" stroke="#263238" stroke-width="0.874" stroke-miterlimit="10" stroke-linecap="round" stroke-linejoin="round"/>
<path d="M346.493 116.027C345.49 116.027 344.488 116.027 343.486 116.027" stroke="#263238" stroke-width="0.874" stroke-miterlimit="10" stroke-linecap="round" stroke-linejoin="round"/>
<path d="M378.177 116.027C368.754 116.027 359.331 116.027 349.908 116.027" stroke="#263238" stroke-width="0.874" stroke-miterlimit="10" stroke-linecap="round" stroke-linejoin="round"/>
<path d="M309.151 180.557L294.557 169.44C294.557 169.44 276.847 135.93 275.84 134.746L270.548 141.588C270.548 141.588 280.525 170.733 282.005 174.797C283.484 178.861 289.555 183.451 292.536 186.57C295.516 189.689 307.128 197.893 307.128 197.893L309.151 180.557Z" fill="white" stroke="#263238" stroke-width="0.874" stroke-miterlimit="10" stroke-linecap="round" stroke-linejoin="round"/>
<path d="M236.378 278.684H222.913C214.492 278.684 207.535 272.11 207.06 263.703L206.328 250.773H252.962L252.23 263.703C251.756 272.11 244.799 278.684 236.378 278.684Z" fill="#263238"/>
<path d="M299.83 157.098C299.83 117.774 267.488 86.0032 227.954 86.934C190.012 87.8272 159.376 119.31 159.463 157.262C159.506 175.94 166.852 192.893 178.79 205.441C185.942 212.957 191.14 222.114 193.518 232.213L193.982 234.183H265.312L265.584 233.027C268.06 222.51 273.446 212.965 280.84 205.085C292.613 192.538 299.83 175.664 299.83 157.098Z" fill="white"/>
<mask id="mask0_386_16585" style="mask-type:luminance" maskUnits="userSpaceOnUse" x="159" y="86" width="141" height="149">
<path d="M299.83 157.094C299.83 117.77 267.488 85.9993 227.954 86.9301C190.012 87.8233 159.375 119.306 159.463 157.258C159.506 175.936 166.852 192.889 178.79 205.437C185.942 212.953 191.14 222.11 193.518 232.209L193.982 234.179H265.312L265.584 233.024C268.06 222.506 273.446 212.961 280.84 205.081C292.613 192.534 299.83 175.66 299.83 157.094Z" fill="white"/>
</mask>
<g mask="url(#mask0_386_16585)">
<path opacity="0.4" d="M227.953 86.9301C190.011 87.8233 159.375 119.306 159.462 157.258C159.505 175.936 166.851 192.889 178.789 205.437C185.941 212.954 191.139 222.11 193.517 232.209L193.981 234.179H265.311L265.583 233.024C268.059 222.506 273.445 212.961 280.839 205.081C292.614 192.533 299.831 175.659 299.831 157.093C299.83 117.77 267.488 86.0001 227.953 86.9301ZM229.419 213.771C194.813 213.771 166.759 185.717 166.759 151.111C166.759 116.505 194.813 88.4517 229.419 88.4517C264.025 88.4517 292.078 116.505 292.078 151.111C292.078 185.717 264.025 213.771 229.419 213.771Z" fill="#3663A8"/>
</g>
<path d="M299.83 157.098C299.83 117.774 267.488 86.0032 227.954 86.934C190.012 87.8272 159.376 119.31 159.463 157.262C159.506 175.94 166.852 192.893 178.79 205.441C185.942 212.957 191.14 222.114 193.518 232.213L193.982 234.183H265.312L265.584 233.027C268.06 222.51 273.446 212.965 280.84 205.085C292.613 192.538 299.83 175.664 299.83 157.098Z" stroke="#263238" stroke-width="0.874" stroke-miterlimit="10"/>
<path d="M205.697 269.618H253.595C261.272 265.361 266.628 257.384 267.156 248.038L268.371 226.562H190.922L192.137 248.038C192.665 257.384 198.02 265.361 205.697 269.618Z" fill="#3663A8" stroke="#263238" stroke-width="0.874" stroke-miterlimit="10" stroke-linecap="round" stroke-linejoin="round"/>
<path d="M268.011 234.359L192.718 240.438C191.131 240.565 189.742 239.384 189.614 237.797C189.487 236.211 190.668 234.821 192.255 234.694L267.548 228.615C269.134 228.487 270.524 229.669 270.651 231.255C270.779 232.842 269.597 234.231 268.011 234.359Z" fill="#3663A8" stroke="#263238" stroke-width="0.874" stroke-miterlimit="10" stroke-linecap="round" stroke-linejoin="round"/>
<path d="M267.997 245.753L193.507 251.767C191.921 251.895 190.531 250.713 190.403 249.127C190.276 247.541 191.457 246.151 193.044 246.024L267.534 240.01C269.12 239.881 270.51 241.064 270.637 242.65C270.765 244.236 269.583 245.626 267.997 245.753Z" fill="#3663A8" stroke="#263238" stroke-width="0.874" stroke-miterlimit="10" stroke-linecap="round" stroke-linejoin="round"/>
<path d="M265.719 257.394L197.079 262.935C195.493 263.063 194.103 261.881 193.975 260.295C193.848 258.709 195.03 257.319 196.616 257.191L265.255 251.65C266.842 251.522 268.231 252.704 268.359 254.291C268.487 255.876 267.305 257.266 265.719 257.394Z" fill="#3663A8" stroke="#263238" stroke-width="0.874" stroke-miterlimit="10" stroke-linecap="round" stroke-linejoin="round"/>
<path d="M284.219 391.172C284.219 391.172 285.804 400.888 284.219 405.426H252.07C252.07 405.426 250.712 402.025 252.07 399.881C253.428 397.737 263.617 396.51 266.787 393.615C269.957 390.719 273.352 385.738 273.352 385.738L284.219 391.172Z" fill="#263238" stroke="#263238" stroke-width="0.874" stroke-miterlimit="10"/>
<path d="M251.466 403.715H284.64L284.924 405.427H251.466V403.715Z" fill="white" stroke="#263238" stroke-width="0.874" stroke-miterlimit="10" stroke-linecap="round" stroke-linejoin="round"/>
<path d="M276.491 389.988C276.491 389.988 273.466 390.72 273.126 390.833C272.786 390.946 269.843 395.473 266.899 396.266C263.956 397.059 261.013 396.907 261.466 398.341" stroke="white" stroke-width="0.874" stroke-miterlimit="10" stroke-linecap="round" stroke-linejoin="round"/>
<path d="M269.793 389.988L273.239 392.531" stroke="white" stroke-width="0.874" stroke-miterlimit="10" stroke-linecap="round" stroke-linejoin="round"/>
<path d="M268.195 392.215L271.516 394.654" stroke="white" stroke-width="0.874" stroke-miterlimit="10" stroke-linecap="round" stroke-linejoin="round"/>
<path d="M266.074 394.164L268.956 396.944" stroke="white" stroke-width="0.874" stroke-miterlimit="10" stroke-linecap="round" stroke-linejoin="round"/>
<path d="M263.162 395.582L264.409 398.34" stroke="white" stroke-width="0.874" stroke-miterlimit="10" stroke-linecap="round" stroke-linejoin="round"/>
<path d="M284.738 395.581C284.738 395.581 279.465 394.939 273.692 396.961C267.918 398.982 265.927 400.75 266.074 401.282C266.221 401.812 266.9 403.391 266.9 403.391H269.793C269.793 403.391 268.748 401.544 268.956 401.282C269.164 401.02 279.03 397.171 284.738 397.85V395.581Z" fill="white"/>
<path d="M331.174 405.424C331.174 405.424 332.413 400.694 330.964 398.942C328.363 395.794 331.282 393.155 328.671 392.061L327.578 393.331C327.365 392.042 327.974 388.126 323.132 387.615C317.278 386.998 317.167 391.258 316.851 392.661L316.947 390.7C314.452 390.7 315.745 393.191 311.96 397.267C309.072 400.377 309.066 404.366 309.225 405.423H331.174V405.424Z" fill="#263238" stroke="#263238" stroke-width="0.874" stroke-miterlimit="10"/>
<path d="M309.206 403.711H331.667L331.174 405.423H309.226L309.206 403.711Z" fill="white" stroke="#263238" stroke-width="0.874" stroke-miterlimit="10" stroke-linecap="round" stroke-linejoin="round"/>
<path d="M316.416 397.073C316.416 397.073 323.787 394.632 327.346 397.683" stroke="white" stroke-width="0.874" stroke-miterlimit="10" stroke-linecap="round" stroke-linejoin="round"/>
<path d="M316.416 395.46C316.416 395.46 322.897 393.408 327.346 396.15" stroke="white" stroke-width="0.874" stroke-miterlimit="10" stroke-linecap="round" stroke-linejoin="round"/>
<path d="M316.798 393.869C316.798 393.869 322.898 391.568 327.346 394.72" stroke="white" stroke-width="0.874" stroke-miterlimit="10" stroke-linecap="round" stroke-linejoin="round"/>
<path d="M311.96 397.266L312.687 397.981C312.893 398.184 312.927 398.499 312.772 398.742C312.248 399.562 311.172 401.532 311.269 403.71H310.188C310.188 403.71 310.565 400.811 311.745 398.761L311.191 398.203L311.96 397.266Z" fill="white"/>
<path d="M290.001 345.477C290.001 345.477 285.23 353.585 277.165 351.859" stroke="#263238" stroke-width="0.874" stroke-miterlimit="10" stroke-linecap="round" stroke-linejoin="round"/>
<path d="M295.044 253.149L291.912 259.769C291.912 259.769 278.996 286.475 271.078 317.051C270.891 317.774 266.795 332.26 270.079 368.325L268.208 374.654L270.251 385.106C270.251 385.106 267.177 389.553 267.287 391.004C267.287 391.004 274.877 392.421 277.407 393.78C279.379 394.84 285.291 400.679 285.291 400.679C286.967 400.333 287.114 393.549 287.114 393.549C287.114 393.549 290.628 333.346 291.63 330.749C292.633 328.153 298.8 316.971 308.405 291.373C308.405 291.373 308.622 327.129 311.189 336.172C313.472 344.219 310.768 366.741 310.768 366.741L312.309 391.812C312.309 391.812 306.906 397.427 311.289 398.933C311.289 398.933 314.217 393.298 322.56 392.018C326.801 391.368 332.088 398.899 332.088 398.899C333.941 398.305 331.298 388.845 331.298 388.845C337.211 344.219 332.845 352.298 334.027 330.486C334.785 316.49 338.759 256.6 334.099 251.734L295.044 253.149Z" fill="#263238"/>
<mask id="mask1_386_16585" style="mask-type:luminance" maskUnits="userSpaceOnUse" x="267" y="251" width="70" height="150">
<path d="M295.044 253.149L291.913 259.769C291.913 259.769 278.996 286.475 271.078 317.051C270.891 317.774 266.796 332.26 270.079 368.325L268.208 374.654L270.251 385.106C270.251 385.106 267.178 389.553 267.287 391.004C267.287 391.004 274.877 392.421 277.407 393.78C279.379 394.84 285.291 400.679 285.291 400.679C286.968 400.333 287.114 393.549 287.114 393.549C287.114 393.549 290.628 333.346 291.63 330.749C292.633 328.153 298.801 316.971 308.405 291.373C308.405 291.373 308.623 327.129 311.189 336.172C313.472 344.219 310.768 366.741 310.768 366.741L312.309 391.812C312.309 391.812 306.906 397.427 311.289 398.933C311.289 398.933 314.217 393.298 322.56 392.018C326.801 391.368 332.088 398.899 332.088 398.899C333.941 398.305 331.298 388.845 331.298 388.845C337.211 344.219 332.846 352.298 334.027 330.486C334.785 316.49 338.759 256.6 334.099 251.734L295.044 253.149Z" fill="white"/>
</mask>
<g mask="url(#mask1_386_16585)">
<path opacity="0.2" d="M336.329 273.768C315.446 275.413 297.354 268.58 289.51 265.008C290.997 261.66 291.914 259.769 291.914 259.769L295.045 253.152L334.1 251.738C335.781 253.491 336.336 262.418 336.329 273.768Z" fill="black"/>
</g>
<mask id="mask2_386_16585" style="mask-type:luminance" maskUnits="userSpaceOnUse" x="267" y="251" width="70" height="150">
<path d="M295.044 253.149L291.913 259.769C291.913 259.769 278.996 286.475 271.078 317.051C270.891 317.774 266.796 332.26 270.079 368.325L268.208 374.654L270.251 385.106C270.251 385.106 267.178 389.553 267.287 391.004C267.287 391.004 274.877 392.421 277.407 393.78C279.379 394.84 285.291 400.679 285.291 400.679C286.968 400.333 287.114 393.549 287.114 393.549C287.114 393.549 290.628 333.346 291.63 330.749C292.633 328.153 298.801 316.971 308.405 291.373C308.405 291.373 308.623 327.129 311.189 336.172C313.472 344.219 310.768 366.741 310.768 366.741L312.309 391.812C312.309 391.812 306.906 397.427 311.289 398.933C311.289 398.933 314.217 393.298 322.56 392.018C326.801 391.368 332.088 398.899 332.088 398.899C333.941 398.305 331.298 388.845 331.298 388.845C337.211 344.219 332.846 352.298 334.027 330.486C334.785 316.49 338.759 256.6 334.099 251.734L295.044 253.149Z" fill="white"/>
</mask>
<g mask="url(#mask2_386_16585)">
<path opacity="0.2" d="M308.229 291.832C298.725 317.103 292.62 328.166 291.625 330.748C291.055 332.242 289.655 352.686 288.565 369.846C287.309 354.237 286.025 337.762 285.91 334.529C285.679 328.099 290.326 319.274 291.026 316.994C291.726 314.721 290.146 312.246 290.146 312.246L298.51 301.703C298.228 298.124 302.651 282.508 302.651 282.508C305.285 284.998 307.602 290.302 308.229 291.832Z" fill="black"/>
</g>
<path d="M295.044 253.149L291.912 259.769C291.912 259.769 278.996 286.475 271.078 317.051C270.891 317.774 266.795 332.26 270.079 368.325L268.208 374.654L270.251 385.106C270.251 385.106 267.177 389.553 267.287 391.004C267.287 391.004 274.877 392.421 277.407 393.78C279.379 394.84 285.291 400.679 285.291 400.679C286.967 400.333 287.114 393.549 287.114 393.549C287.114 393.549 290.628 333.346 291.63 330.749C292.633 328.153 298.8 316.971 308.405 291.373C308.405 291.373 308.622 327.129 311.189 336.172C313.472 344.219 310.768 366.741 310.768 366.741L312.309 391.812C312.309 391.812 306.906 397.427 311.289 398.933C311.289 398.933 314.217 393.298 322.56 392.018C326.801 391.368 332.088 398.899 332.088 398.899C333.941 398.305 331.298 388.845 331.298 388.845C337.211 344.219 332.845 352.298 334.027 330.486C334.785 316.49 338.759 256.6 334.099 251.734L295.044 253.149Z" stroke="#263238" stroke-width="0.874" stroke-miterlimit="10" stroke-linecap="round" stroke-linejoin="round"/>
<path d="M308.403 291.377C308.403 291.377 303.629 282.162 299.557 279.594" stroke="#263238" stroke-width="0.874" stroke-miterlimit="10" stroke-linecap="round" stroke-linejoin="round"/>
<path d="M297.769 276.609C297.769 276.609 312.27 281.02 317.295 281.876" stroke="#263238" stroke-width="0.874" stroke-miterlimit="10" stroke-linecap="round" stroke-linejoin="round"/>
<path d="M305.192 261.812C304.566 273.884 300.308 275.941 304.426 278.574C304.426 278.574 304.313 284.221 306.358 287.799" stroke="#263238" stroke-width="0.874" stroke-miterlimit="10" stroke-linecap="round" stroke-linejoin="round"/>
<path d="M330.599 257.199C330.599 257.199 328.886 275.752 334.596 279.242" stroke="#263238" stroke-width="0.874" stroke-miterlimit="10" stroke-linecap="round" stroke-linejoin="round"/>
<path d="M334.596 263.176C334.596 263.176 335.024 275.53 334.596 285.482C334.596 285.482 333.169 327.55 331.741 332.832C330.314 338.113 333.94 346.085 333.626 368.934" stroke="#263238" stroke-width="0.874" stroke-miterlimit="10" stroke-linecap="round" stroke-linejoin="round"/>
<path d="M320.893 386.828C322.246 386.572 323.672 386.689 324.89 387.363" stroke="#263238" stroke-width="0.874" stroke-miterlimit="10" stroke-linecap="round" stroke-linejoin="round"/>
<path d="M312.307 391.812C314.098 390.104 316.185 388.601 318.451 387.598" stroke="#263238" stroke-width="0.874" stroke-miterlimit="10" stroke-linecap="round" stroke-linejoin="round"/>
<path d="M314.696 294.289C317.898 297.877 322.97 304.65 328.172 305.223" stroke="#263238" stroke-width="0.874" stroke-miterlimit="10" stroke-linecap="round" stroke-linejoin="round"/>
<path d="M309.76 288.441C310.745 289.686 311.761 290.906 312.793 292.111" stroke="#263238" stroke-width="0.874" stroke-miterlimit="10" stroke-linecap="round" stroke-linejoin="round"/>
<path d="M314.327 330.488C314.327 330.488 321.607 340.399 325.604 340.969" stroke="#263238" stroke-width="0.874" stroke-miterlimit="10" stroke-linecap="round" stroke-linejoin="round"/>
<path d="M305.763 289.586C305.763 289.586 292.798 325.699 288.29 329.267C288.29 329.267 287.778 355.817 287.635 365.094C287.493 374.373 285.351 386.7 285.351 386.7" stroke="#263238" stroke-width="0.874" stroke-miterlimit="10" stroke-linecap="round" stroke-linejoin="round"/>
<path d="M271.505 386.43C271.505 386.43 276.501 388.156 278.928 389.256C281.355 390.357 282.211 392.784 282.211 392.784" stroke="#263238" stroke-width="0.874" stroke-miterlimit="10" stroke-linecap="round" stroke-linejoin="round"/>
<path d="M284.138 316.246C291.103 311.875 300.281 306.417 303.98 298.723" stroke="#263238" stroke-width="0.874" stroke-miterlimit="10" stroke-linecap="round" stroke-linejoin="round"/>
<path d="M278.071 319.846C279.387 319.118 280.685 318.356 281.972 317.578" stroke="#263238" stroke-width="0.874" stroke-miterlimit="10" stroke-linecap="round" stroke-linejoin="round"/>
<path d="M300.005 266.695C303.75 266.64 307.849 266.148 311.043 264.035" stroke="#263238" stroke-width="0.874" stroke-miterlimit="10" stroke-linecap="round" stroke-linejoin="round"/>
<path d="M294.058 266.344C295.13 266.496 296.21 266.586 297.29 266.642" stroke="#263238" stroke-width="0.874" stroke-miterlimit="10" stroke-linecap="round" stroke-linejoin="round"/>
<path d="M313.44 188.044C313.44 188.044 335.445 181.8 348.104 188.568C351.254 190.253 358.442 195.711 358.19 202.263C357.939 208.816 337.11 239.279 337.362 243.366C337.614 247.454 337.339 257.911 335.827 258.621C334.315 259.333 300.843 260.307 292.614 258.187C289.323 257.339 295.797 241.742 295.797 241.742C295.797 241.742 302.106 207.943 313.44 188.044Z" fill="#3663A8" stroke="#263238" stroke-width="0.874" stroke-miterlimit="10" stroke-linecap="round" stroke-linejoin="round"/>
<path d="M344.774 186.884C344.774 186.884 330.866 192.458 326.298 186.636C326.298 186.636 328.795 186.884 330.305 184.718C330.892 183.889 331.331 182.705 331.427 181.011C331.497 179.978 329.457 166.742 330.305 165.556C343.121 147.634 345.96 173.946 345.96 173.946C345.96 173.946 341.422 185.241 344.774 186.884Z" fill="white" stroke="#263238" stroke-width="0.874" stroke-miterlimit="10" stroke-linecap="round" stroke-linejoin="round"/>
<path d="M335.035 179.719C335.035 179.719 334.135 183.847 330.306 184.72C330.892 183.891 331.332 182.707 331.427 181.012C334.019 180.26 335.035 179.719 335.035 179.719Z" fill="#263238"/>
<path d="M347.262 182.219L332.884 186.041V193.515C332.884 193.515 328.7 203.959 328.834 205.652C328.97 207.346 332.884 275.43 332.884 275.43C332.884 275.43 344.561 274.559 348.783 267.308C348.783 267.308 347.091 240.91 348.783 236.568C350.475 232.226 350.692 226.503 350.692 226.503C350.692 226.503 361.696 205.943 359.248 199.668C356.8 193.393 349.162 187.284 349.162 187.284L347.262 182.219Z" fill="#263238"/>
<path d="M329.607 185.503C329.404 185.207 320.45 179.72 320.45 179.72L315.847 180.938L309.045 176.691C309.045 176.691 302.157 197.694 302.36 202.522C302.562 207.35 295.221 234.231 294.148 244.826C294.148 244.826 302.852 227.59 304.131 224.586C305.409 221.581 309.438 201.341 312.8 196.597C316.162 191.853 323.999 186.007 323.999 186.007L329.607 185.503Z" fill="#263238"/>
<path d="M346.451 172.162C347.074 170.544 347.372 168.719 347.226 166.667C346.282 153.41 343.147 150.324 337.981 151.184C318.699 154.399 324.413 164.194 323.673 167.439C322.932 170.684 320.2 170.936 320.575 172.417C320.723 173 322.995 173.059 322.995 173.059L323.132 176.12L323.999 176.328C323.999 176.328 324.696 183.291 326.471 184.099C328.718 185.124 335.429 181.07 335.418 178.555" fill="white"/>
<path d="M346.451 172.162C347.074 170.544 347.372 168.719 347.226 166.667C346.282 153.41 343.147 150.324 337.981 151.184C318.699 154.399 324.413 164.194 323.673 167.439C322.932 170.684 320.2 170.936 320.575 172.417C320.723 173 322.995 173.059 322.995 173.059L323.132 176.12L323.999 176.328C323.999 176.328 324.696 183.291 326.471 184.099C328.718 185.124 335.429 181.07 335.418 178.555" stroke="#263238" stroke-width="0.874" stroke-miterlimit="10" stroke-linecap="round" stroke-linejoin="round"/>
<path d="M325.178 162.684C325.178 162.684 327.888 162.131 329.243 164.296" stroke="#263238" stroke-width="0.874" stroke-miterlimit="10" stroke-linecap="round" stroke-linejoin="round"/>
<path d="M326.308 166.693C326.407 167.335 326.758 167.813 327.093 167.76C327.427 167.709 327.618 167.147 327.519 166.505C327.42 165.864 327.069 165.386 326.734 165.437C326.401 165.49 326.209 166.052 326.308 166.693Z" fill="#263238"/>
<path d="M323.999 176.327C323.999 176.327 326.648 176.327 328.203 175.719" stroke="#263238" stroke-width="0.874" stroke-miterlimit="10" stroke-linecap="round" stroke-linejoin="round"/>
<path d="M327.62 175.906C327.62 175.906 326.503 177.468 325.492 177.468C324.48 177.468 324.432 176.687 324.432 176.687" stroke="#263238" stroke-width="0.874" stroke-miterlimit="10" stroke-linecap="round" stroke-linejoin="round"/>
<path d="M347.618 153.275C347.618 153.275 348.577 149.154 338.984 148.606C331.487 148.176 324.647 148.838 322.117 153.688C319.587 158.537 319.86 162.896 323.466 163.458C323.466 163.458 323.998 158.221 329.242 154.521C329.242 154.521 327.147 159.947 330.305 162.62C331.104 163.298 331.898 163.738 332.638 164.019C332.883 164.511 333.159 164.95 333.462 165.293C334.984 167.014 335.048 170.661 335.048 170.661L336.52 169.82C336.52 169.82 334.384 164.17 340.579 165.502C343.759 166.185 343.195 170.026 343.663 172.421C344.156 174.946 345.439 175.471 345.439 175.471C346.459 174.427 347.775 172.458 348.778 169.95H348.784C348.784 169.94 351.951 167.698 351.951 164.382C351.951 161.066 351.071 155.654 347.618 153.275Z" fill="#263238"/>
<path d="M337.209 165.564C337.209 165.564 339.216 162.474 340.999 162.399C342.781 162.324 343.983 168.548 342.347 170.919C340.712 173.29 339.103 174.131 338.361 173.418C337.619 172.704 337.833 171.631 337.833 171.631" fill="white"/>
<path d="M337.209 165.564C337.209 165.564 339.216 162.474 340.999 162.399C342.781 162.324 343.983 168.548 342.347 170.919C340.712 173.29 339.103 174.131 338.361 173.418C337.619 172.704 337.833 171.631 337.833 171.631" stroke="#263238" stroke-width="0.874" stroke-miterlimit="10" stroke-linecap="round" stroke-linejoin="round"/>
<path d="M309.045 176.687L301.848 173.66L299.403 169.949C299.403 169.949 293.168 178.884 294.149 190.901L298.159 193.449L303.628 205.904L309.045 176.687Z" fill="#263238"/>
<path d="M335.144 205.912C335.144 205.912 342.378 216.125 338.823 220.444C337.152 222.474 322.413 227.374 322.413 227.374L278.189 224.758L263.471 227.374L261.827 227.506C261.827 227.506 260.735 226.069 262.229 225.034C262.229 225.034 261.43 223.106 261.765 222.677C262.771 221.391 267.344 219.287 267.344 219.287C267.344 219.287 262.057 220.608 264.241 217.768C265.724 215.839 271.367 215.436 273.97 213.731C276.115 212.326 274.241 204.516 278.897 205.913C278.897 205.913 277.575 209.114 277.998 212.553C278.067 213.115 278.19 215.913 278.19 215.913C280.545 218.617 305.852 215.119 308.026 215.056C310.201 214.993 320.802 213.382 320.802 213.382L335.144 205.912Z" fill="white" stroke="#263238" stroke-width="0.874" stroke-miterlimit="10" stroke-linecap="round" stroke-linejoin="round"/>
<path d="M271.252 216.125C271.252 216.125 271.769 217.274 271.654 217.849C271.539 218.424 269.987 219.516 269.987 219.516C269.987 219.516 269.815 220.781 269.987 221.183C270.159 221.585 268.32 223.022 268.32 223.539C268.32 224.057 267.516 225.206 267.516 225.206" stroke="#263238" stroke-width="0.874" stroke-miterlimit="10" stroke-linecap="round" stroke-linejoin="round"/>
<path d="M262.229 225.032C262.918 225.55 265.861 222.639 267.516 222.504" stroke="#263238" stroke-width="0.874" stroke-miterlimit="10" stroke-linecap="round" stroke-linejoin="round"/>
<path d="M266.079 225.434C266.079 225.434 264.527 226.468 262.229 227.272" stroke="#263238" stroke-width="0.874" stroke-miterlimit="10" stroke-linecap="round" stroke-linejoin="round"/>
<path d="M323.707 233.453C323.015 233.914 309.61 245.094 303.981 245.209" stroke="#263238" stroke-width="0.874" stroke-miterlimit="10" stroke-linecap="round" stroke-linejoin="round"/>
<path d="M313.789 202.137C313.795 202.794 317.764 208.211 319.64 209.709" stroke="#263238" stroke-width="0.874" stroke-miterlimit="10" stroke-linecap="round" stroke-linejoin="round"/>
<path d="M134.138 208.492C134.138 208.492 143.229 213.356 145.242 217.678C147.255 222 154.563 244.257 154.563 244.257C154.563 244.257 160.121 253.398 161.407 255.248C162.692 257.097 162.144 264.909 155.736 264.805C149.33 264.701 141.925 258.65 141.652 255.884C141.377 253.118 138.072 251.544 137.823 249.132C137.574 246.721 129.867 230.989 129.867 230.989L134.138 208.492Z" fill="#3663A8"/>
<path d="M144.396 392.701C144.396 392.701 143.023 401.121 144.396 405.054H172.256C172.256 405.054 173.433 402.106 172.256 400.248C171.078 398.391 162.249 397.327 159.503 394.818C156.756 392.309 153.813 387.992 153.813 387.992L144.396 392.701Z" fill="#263238" stroke="#263238" stroke-width="0.874" stroke-miterlimit="10" stroke-linecap="round" stroke-linejoin="round"/>
<path d="M172.779 403.57H144.032L143.785 405.054H172.779V403.57Z" fill="#263238" stroke="#263238" stroke-width="0.874" stroke-miterlimit="10" stroke-linecap="round" stroke-linejoin="round"/>
<path d="M151.093 391.676C151.093 391.676 153.716 392.309 154.009 392.407C154.303 392.505 156.854 396.429 159.404 397.116C161.955 397.803 164.506 397.671 164.113 398.914" stroke="#263238" stroke-width="0.874" stroke-miterlimit="10" stroke-linecap="round" stroke-linejoin="round"/>
<path d="M156.898 391.676L153.911 393.879" stroke="#263238" stroke-width="0.874" stroke-miterlimit="10" stroke-linecap="round" stroke-linejoin="round"/>
<path d="M158.282 393.605L155.405 395.719" stroke="#263238" stroke-width="0.874" stroke-miterlimit="10" stroke-linecap="round" stroke-linejoin="round"/>
<path d="M160.12 395.293L157.623 397.703" stroke="#263238" stroke-width="0.874" stroke-miterlimit="10" stroke-linecap="round" stroke-linejoin="round"/>
<path d="M162.644 396.523L161.563 398.914" stroke="#263238" stroke-width="0.874" stroke-miterlimit="10" stroke-linecap="round" stroke-linejoin="round"/>
<path d="M97.1823 405.052C97.1823 405.052 96.109 400.953 97.3641 399.434C99.6181 396.706 97.0888 394.42 99.3516 393.472L100.298 394.572C100.483 393.455 99.9555 390.061 104.151 389.619C109.224 389.084 109.32 392.776 109.593 393.992L109.51 392.293C111.673 392.293 110.552 394.452 113.831 397.984C116.335 400.679 116.339 404.135 116.201 405.052H97.1823Z" fill="#263238" stroke="#263238" stroke-width="0.874" stroke-miterlimit="10" stroke-linecap="round" stroke-linejoin="round"/>
<path d="M78.8013 249.129C76.4616 250.494 70.4214 263.355 73.9462 288.887C77.4702 314.419 88.0299 364.347 89.7988 371.984C91.5678 379.621 97.7723 397.983 97.7723 397.983C97.7723 397.983 100.145 390.016 111.533 394.275C111.956 394.433 112.388 394.061 112.304 393.617L109.801 380.605C109.801 380.605 109.627 371.087 108.808 368.699C105.722 359.709 104.178 324.991 103.16 320.146C102.143 315.299 104.142 301.362 104.142 301.362C104.142 301.362 118.402 335.479 118.862 338.827C119.323 342.173 128.019 356.109 128.019 356.109L129.515 368.916C129.515 368.916 141.084 388.742 143.122 394.659L156.898 391.673L156.515 381.874L152.804 380.605L146.32 358.325C146.32 358.325 143.876 348.462 138.775 335.586C135.705 327.838 127.009 297.833 127.009 297.833C124.305 294.897 121.765 278.66 121.765 278.66L117.589 258.178L78.8013 249.129Z" fill="#263238"/>
<mask id="mask3_386_16585" style="mask-type:luminance" maskUnits="userSpaceOnUse" x="72" y="249" width="85" height="149">
<path d="M78.8013 249.129C76.4616 250.494 70.4214 263.355 73.9462 288.887C77.4702 314.419 88.0299 364.347 89.7988 371.984C91.5678 379.621 97.7723 397.983 97.7723 397.983C97.7723 397.983 100.145 390.016 111.533 394.275C111.956 394.433 112.388 394.061 112.304 393.617L109.801 380.605C109.801 380.605 109.627 371.087 108.808 368.699C105.722 359.709 104.178 324.991 103.16 320.146C102.143 315.299 104.142 301.362 104.142 301.362C104.142 301.362 118.402 335.479 118.862 338.827C119.323 342.173 128.019 356.109 128.019 356.109L129.515 368.916C129.515 368.916 141.084 388.742 143.122 394.659L156.898 391.673L156.515 381.874L152.804 380.605L146.32 358.325C146.32 358.325 143.876 348.462 138.775 335.586C135.705 327.838 127.009 297.833 127.009 297.833C124.305 294.897 121.765 278.66 121.765 278.66L117.589 258.178L78.8013 249.129Z" fill="white"/>
</mask>
<g mask="url(#mask3_386_16585)">
<path opacity="0.2" d="M119.589 268.003C112.606 271.735 97.3369 278.911 90.4149 274.436C84.6028 270.678 78.0303 264.638 74.0186 260.74C75.3646 253.652 77.5845 249.833 78.7994 249.125L117.588 258.18L119.589 268.003Z" fill="black"/>
</g>
<mask id="mask4_386_16585" style="mask-type:luminance" maskUnits="userSpaceOnUse" x="72" y="249" width="85" height="149">
<path d="M78.8013 249.129C76.4616 250.494 70.4214 263.355 73.9462 288.887C77.4702 314.419 88.0299 364.347 89.7988 371.984C91.5678 379.621 97.7723 397.983 97.7723 397.983C97.7723 397.983 100.145 390.016 111.533 394.275C111.956 394.433 112.388 394.061 112.304 393.617L109.801 380.605C109.801 380.605 109.627 371.087 108.808 368.699C105.722 359.709 104.178 324.991 103.16 320.146C102.143 315.299 104.142 301.362 104.142 301.362C104.142 301.362 118.402 335.479 118.862 338.827C119.323 342.173 128.019 356.109 128.019 356.109L129.515 368.916C129.515 368.916 141.084 388.742 143.122 394.659L156.898 391.673L156.515 381.874L152.804 380.605L146.32 358.325C146.32 358.325 143.876 348.462 138.775 335.586C135.705 327.838 127.009 297.833 127.009 297.833C124.305 294.897 121.765 278.66 121.765 278.66L117.589 258.178L78.8013 249.129Z" fill="white"/>
</mask>
<g mask="url(#mask4_386_16585)">
<path opacity="0.2" d="M156.9 391.675L143.117 394.655C141.081 388.738 129.518 368.916 129.518 368.916L128.015 356.112C128.015 356.112 119.327 342.172 118.864 338.824C118.401 335.477 104.146 301.365 104.146 301.365C104.146 301.365 103.805 303.751 103.464 306.906C103.569 305.271 104.303 294.285 103.892 290.903L104.242 288.858C104.242 288.858 113.629 282.076 114.887 284.663C116.137 287.25 109.967 289.907 109.967 289.907C109.967 289.907 115.674 291.628 118.444 291.742C121.206 291.856 117.815 298.62 116.513 299.389C115.211 300.159 110.176 299.389 110.176 299.389C110.176 299.389 120.979 326.073 131.004 335.355C134.176 338.291 137.629 340.048 140.871 341.097C144.551 351.174 146.316 358.323 146.316 358.323L152.801 380.602L156.516 381.878L156.9 391.675Z" fill="black"/>
</g>
<path d="M78.8013 249.129C76.4616 250.494 70.4214 263.355 73.9462 288.887C77.4702 314.419 88.0299 364.347 89.7988 371.984C91.5678 379.621 97.7723 397.983 97.7723 397.983C97.7723 397.983 100.145 390.016 111.533 394.275C111.956 394.433 112.388 394.061 112.304 393.617L109.801 380.605C109.801 380.605 109.627 371.087 108.808 368.699C105.722 359.709 104.178 324.991 103.16 320.146C102.143 315.299 104.142 301.362 104.142 301.362C104.142 301.362 118.402 335.479 118.862 338.827C119.323 342.173 128.019 356.109 128.019 356.109L129.515 368.916C129.515 368.916 141.084 388.742 143.122 394.659L156.898 391.673L156.515 381.874L152.804 380.605L146.32 358.325C146.32 358.325 143.876 348.462 138.775 335.586C135.705 327.838 127.009 297.833 127.009 297.833C124.305 294.897 121.765 278.66 121.765 278.66L117.589 258.178L78.8013 249.129Z" stroke="#263238" stroke-width="0.874" stroke-miterlimit="10" stroke-linecap="round" stroke-linejoin="round"/>
<path d="M135.501 231.337C130.741 240.779 123.291 252.578 123.291 252.578L119.997 265.733C119.997 265.733 107.621 273.37 93.4316 270.169C76.7871 266.414 74.0996 257.9 74.0996 257.9L78.5692 243.089C80.7341 233.197 85.4284 214.309 95.177 208.967C104.925 203.626 121.65 203.17 128.4 205.334C134.404 207.259 137.728 208.722 139.364 210.501C139.364 210.501 141.796 218.841 141.262 221.611C140.748 224.274 135.501 231.337 135.501 231.337Z" fill="#3663A8"/>
<path d="M116.218 403.57H96.7549L97.1823 405.054H116.201L116.218 403.57Z" fill="#263238" stroke="#263238" stroke-width="0.874" stroke-miterlimit="10" stroke-linecap="round" stroke-linejoin="round"/>
<path d="M109.97 397.816C109.97 397.816 103.582 395.702 100.499 398.345" stroke="#263238" stroke-width="0.874" stroke-miterlimit="10" stroke-linecap="round" stroke-linejoin="round"/>
<path d="M109.97 396.42C109.97 396.42 104.353 394.642 100.499 397.018" stroke="#263238" stroke-width="0.874" stroke-miterlimit="10" stroke-linecap="round" stroke-linejoin="round"/>
<path d="M109.64 395.042C109.64 395.042 104.353 393.048 100.499 395.78" stroke="#263238" stroke-width="0.874" stroke-miterlimit="10" stroke-linecap="round" stroke-linejoin="round"/>
<g opacity="0.96">
<path d="M108.807 287.105C108.046 287.279 93.3505 292.638 90.4121 297.997" stroke="#263238" stroke-width="0.874" stroke-miterlimit="10" stroke-linecap="round" stroke-linejoin="round"/>
<path d="M105.235 294.887C105.971 295.924 112.212 315.46 114.883 320.818C117.554 326.178 126.544 350.207 128.618 351.591C128.618 351.591 131.384 365.594 133.113 367.841C134.841 370.088 143.785 387.997 143.785 387.997" stroke="#263238" stroke-width="0.874" stroke-miterlimit="10" stroke-linecap="round" stroke-linejoin="round"/>
<path d="M153.813 387.992L142.967 390.312" stroke="#263238" stroke-width="0.874" stroke-miterlimit="10" stroke-linecap="round" stroke-linejoin="round"/>
<path d="M109.64 389.155C109.64 389.155 100.957 388.373 98.0186 391.678" stroke="#263238" stroke-width="0.874" stroke-miterlimit="10" stroke-linecap="round" stroke-linejoin="round"/>
<path d="M99.6087 297.133C98.8824 301.282 87.9906 324.275 85.3975 321.682" stroke="#263238" stroke-width="0.874" stroke-miterlimit="10" stroke-linecap="round" stroke-linejoin="round"/>
<path d="M103.829 299.204C103.829 299.204 105.106 293.499 103.897 290.905C103.434 289.914 113.232 293.325 116.517 292.547" stroke="#263238" stroke-width="0.874" stroke-miterlimit="10" stroke-linecap="round" stroke-linejoin="round"/>
<path d="M105.235 270.957C105.235 270.957 103.521 275.869 103.104 277.425C102.686 278.98 106.228 285.031 105.235 286.242" stroke="#263238" stroke-width="0.874" stroke-miterlimit="10" stroke-linecap="round" stroke-linejoin="round"/>
<path d="M81.4214 266.359C81.4214 266.359 79.0013 270.066 79.0013 272.794C79.0013 275.522 75.7168 276.732 75.7168 276.732" stroke="#263238" stroke-width="0.874" stroke-miterlimit="10" stroke-linecap="round" stroke-linejoin="round"/>
<path d="M76.2617 262.309C76.2617 262.309 73.2971 273.447 75.7172 287.105C78.1373 300.762 82.114 328.596 83.6697 335.684C85.2254 342.772 88.856 358.677 88.856 360.924C88.856 363.172 92.5041 375.964 92.5041 375.964" stroke="#263238" stroke-width="0.874" stroke-miterlimit="10" stroke-linecap="round" stroke-linejoin="round"/>
<path d="M91.6221 356.602C92.1404 356.602 101.818 365.937 104.24 366.11" stroke="#263238" stroke-width="0.874" stroke-miterlimit="10" stroke-linecap="round" stroke-linejoin="round"/>
<path d="M133.977 350.898C134.495 351.071 142.621 355.047 142.967 353.838" stroke="#263238" stroke-width="0.874" stroke-miterlimit="10" stroke-linecap="round" stroke-linejoin="round"/>
</g>
<path d="M123.975 203.759C123.975 203.759 114.101 204.751 113.755 210.235C113.408 215.72 118.019 221.944 125.741 222.289C133.462 222.635 134.41 215.06 134.685 210.952C134.961 206.844 129.355 203.439 123.975 203.759Z" fill="white" stroke="#263238" stroke-width="0.874" stroke-miterlimit="10" stroke-linecap="round" stroke-linejoin="round"/>
<path d="M120.824 207.096C119.396 203.094 118.874 198.391 120.108 193.196C121.476 187.432 128.342 179.516 138.74 186.717C144.102 190.429 144.429 198.478 142.76 205.856C142.361 207.616 142.66 209.337 142.076 210.953C140.022 216.634 136.26 221.002 134.205 221.101C130.769 221.269 123.907 217.116 124.19 213.497" fill="white"/>
<path d="M120.824 207.096C119.396 203.094 118.874 198.391 120.108 193.196C121.476 187.432 128.342 179.516 138.74 186.717C144.102 190.429 144.429 198.478 142.76 205.856C142.361 207.616 142.66 209.337 142.076 210.953C140.022 216.634 136.26 221.002 134.205 221.101C130.769 221.269 123.907 217.116 124.19 213.497" stroke="#263238" stroke-width="0.874" stroke-miterlimit="10" stroke-linecap="round" stroke-linejoin="round"/>
<path d="M134.685 203.422C134.685 203.422 131.914 202.479 129.245 204.121" stroke="#263238" stroke-width="0.874" stroke-miterlimit="10" stroke-linecap="round" stroke-linejoin="round"/>
<path d="M139.92 203.248C139.92 203.248 142.016 202.2 143.381 202.471" stroke="#263238" stroke-width="0.874" stroke-miterlimit="10" stroke-linecap="round" stroke-linejoin="round"/>
<path d="M131.349 208.488C131.67 208.488 131.929 208.075 131.929 207.564C131.929 207.054 131.67 206.641 131.349 206.641C131.029 206.641 130.769 207.054 130.769 207.564C130.769 208.075 131.029 208.488 131.349 208.488Z" fill="#263238"/>
<path d="M139.92 207.977C140.241 207.977 140.501 207.563 140.501 207.053C140.501 206.543 140.241 206.129 139.92 206.129C139.6 206.129 139.34 206.543 139.34 207.053C139.34 207.563 139.6 207.977 139.92 207.977Z" fill="#263238"/>
<path d="M128.012 196.38L127.739 200.623C127.739 200.623 124.728 202.174 123.974 203.76C123.222 205.345 123.495 207.057 123.495 207.057C123.495 207.057 121.667 203.864 120.686 204.125C120.331 204.22 120.331 205.555 120.331 205.555C120.331 205.555 116.241 196.38 119.936 191.521C123.632 186.661 128.012 196.38 128.012 196.38Z" fill="#263238"/>
<path d="M122.212 206.128C122.212 206.128 121.391 203.048 118.619 202.228C115.848 201.406 117.747 208.791 120.108 209.773C122.468 210.755 123.062 211.415 123.202 210.543" fill="white"/>
<path d="M122.212 206.128C122.212 206.128 121.391 203.048 118.619 202.228C115.848 201.406 117.747 208.791 120.108 209.773C122.468 210.755 123.062 211.415 123.202 210.543" stroke="#263238" stroke-width="0.874" stroke-miterlimit="10" stroke-linecap="round" stroke-linejoin="round"/>
<path d="M137.9 207.566C137.9 207.566 137.669 209.436 138.533 210.53C139.398 211.625 138.302 213.239 136.804 212.835" stroke="#263238" stroke-width="0.874" stroke-miterlimit="10" stroke-linecap="round" stroke-linejoin="round"/>
<path d="M136.805 215.43C136.805 215.43 134.155 216.179 131.964 215.43" stroke="#263238" stroke-width="0.874" stroke-miterlimit="10" stroke-linecap="round" stroke-linejoin="round"/>
<path d="M128.012 196.377C128.012 196.377 135.078 198.076 139.34 197.507C143.602 196.938 146.332 194.969 145.679 190.447C145.026 185.926 139.92 183.842 131.533 182.408C123.296 181.001 114.66 187.168 118.587 194.7C122.514 202.232 128.012 196.377 128.012 196.377Z" fill="#263238"/>
<path d="M137.372 263.489C137.372 263.489 137.66 263.923 137.747 265.003C137.833 266.082 133.943 267.378 133.252 266.946C132.561 266.515 130.927 264.353 132.824 263.056C134.721 261.76 137.372 263.489 137.372 263.489Z" fill="white" stroke="#263238" stroke-width="0.874" stroke-miterlimit="10" stroke-linecap="round" stroke-linejoin="round"/>
<path d="M147.6 262.307C147.6 262.307 147.989 264.829 148.594 265.823C149.199 266.817 152.96 265.856 153.996 266.358C155.033 266.861 155.12 265.057 153.996 264.143C152.873 263.229 151.447 261.168 147.6 262.307Z" fill="white" stroke="#263238" stroke-width="0.874" stroke-miterlimit="10" stroke-linecap="round" stroke-linejoin="round"/>
<path d="M145.241 261.766H140.804V331.9H145.241V261.766Z" fill="#EDEDED" stroke="#263238" stroke-width="0.874" stroke-miterlimit="10" stroke-linecap="round" stroke-linejoin="round"/>
<path d="M148.307 405.053H137.739V314.144C137.739 313.257 138.457 312.539 139.344 312.539H146.703C147.589 312.539 148.307 313.257 148.307 314.144V405.053Z" fill="#D3D3D3" stroke="#263238" stroke-width="0.874" stroke-miterlimit="10" stroke-linecap="round" stroke-linejoin="round"/>
<path d="M155.879 256.93H130.168C129.057 256.93 128.156 257.831 128.156 258.942V260.295C128.156 261.406 129.057 262.307 130.168 262.307H139.654V266.358H146.393V262.307H155.879C156.99 262.307 157.891 261.406 157.891 260.295V258.942C157.891 257.83 156.99 256.93 155.879 256.93Z" fill="#3663A8" stroke="#263238" stroke-width="0.874" stroke-miterlimit="10" stroke-linecap="round" stroke-linejoin="round"/>
<path d="M119.415 254.729C119.415 254.729 133.04 252.885 134.385 252.654C135.73 252.423 139.921 259.569 139.921 259.569L136.805 264.359C136.805 264.359 124.919 266.023 124.216 265.331C123.513 264.64 123.203 263.487 123.203 263.487C123.203 263.487 117.128 265.789 116.517 261.641C115.905 257.495 115.539 256.88 119.415 254.729Z" fill="white" stroke="#263238" stroke-width="0.874" stroke-miterlimit="10" stroke-linecap="round" stroke-linejoin="round"/>
<path d="M147.14 256.928C147.14 256.928 149.215 253.23 151.289 253.23C153.363 253.23 161.316 254.613 162.237 255.766C163.159 256.919 165.349 258.762 165.003 260.261C164.658 261.76 162.468 264.884 160.393 264.359C158.318 263.835 153.016 264.418 153.016 264.418C153.016 264.418 150.135 263.89 149.905 262.306L152.325 261.643C152.325 261.643 152.671 258.302 152.21 257.841C151.749 257.379 147.14 256.928 147.14 256.928Z" fill="white" stroke="#263238" stroke-width="0.874" stroke-miterlimit="10" stroke-linecap="round" stroke-linejoin="round"/>
<path d="M154.562 264.28C154.562 264.28 157.09 261.531 156.898 260.493C156.705 259.456 156.331 256.229 155.712 255.883" stroke="#263238" stroke-width="0.874" stroke-miterlimit="10" stroke-linecap="round" stroke-linejoin="round"/>
<path d="M158.06 264.143C158.06 264.143 159.932 263.37 159.932 261.643C159.932 259.916 159.462 257.496 159.462 257.496" stroke="#263238" stroke-width="0.874" stroke-miterlimit="10" stroke-linecap="round" stroke-linejoin="round"/>
<path d="M161.406 264.341C163.678 261.765 162.237 259.074 162.237 259.074" stroke="#263238" stroke-width="0.874" stroke-miterlimit="10" stroke-linecap="round" stroke-linejoin="round"/>
<path d="M134.635 264.419C134.635 264.419 136.795 261.514 136.45 260.081C136.104 258.649 134.635 255.883 134.635 255.883" stroke="#263238" stroke-width="0.874" stroke-miterlimit="10" stroke-linecap="round" stroke-linejoin="round"/>
<path d="M131.7 265.004C131.7 265.004 132.906 261.522 132.819 260.82C132.733 260.119 131.09 256.748 131.004 256.402" stroke="#263238" stroke-width="0.874" stroke-miterlimit="10" stroke-linecap="round" stroke-linejoin="round"/>
<path d="M128.155 265.359C128.929 264.095 130.744 263.596 129.362 260.82C127.979 258.044 127.287 257.496 127.287 257.496" stroke="#263238" stroke-width="0.874" stroke-miterlimit="10" stroke-linecap="round" stroke-linejoin="round"/>
<path d="M123.202 263.488C123.829 262.883 125.04 261.426 125.04 261.426C125.04 261.426 125.299 262.623 125.818 262.969" stroke="#263238" stroke-width="0.874" stroke-miterlimit="10" stroke-linecap="round" stroke-linejoin="round"/>
<path d="M157.323 403.199H129.176C128.579 403.199 128.094 403.684 128.094 404.282V405.424H158.751V404.628C158.751 403.839 158.112 403.199 157.323 403.199Z" fill="#263238"/>
<path d="M86.6564 223.086C83.2067 231.746 79.0937 241.876 78.509 251.294C78.2914 254.799 81.6597 256.022 84.4994 257.312C90.0143 259.818 95.9864 261.656 101.927 262.822C104.032 263.236 106.27 263.222 108.306 263.725C110.584 264.289 113.798 266.291 116.134 265.004" stroke="#263238" stroke-width="0.874" stroke-miterlimit="10" stroke-linecap="round" stroke-linejoin="round"/>
<path d="M103.069 227.703L98.5028 237.537L95.5635 243.435C95.5635 243.435 97.4313 245.366 99.6093 245.524C101.787 245.682 103.069 247.725 103.069 247.725C103.069 247.725 114.578 252.702 116.135 252.65C117.692 252.597 118.951 251.099 120.223 253.232" stroke="#263238" stroke-width="0.874" stroke-miterlimit="10" stroke-linecap="round" stroke-linejoin="round"/>
<path d="M95.5636 243.434C95.5636 243.434 89.3399 241.359 87.0928 243.434" stroke="#263238" stroke-width="0.874" stroke-miterlimit="10" stroke-linecap="round" stroke-linejoin="round"/>
<path d="M96.6006 212.9C97.1188 212.491 103.45 219.406 103.828 224.593" stroke="#263238" stroke-width="0.874" stroke-miterlimit="10" stroke-linecap="round" stroke-linejoin="round"/>
<path d="M105.41 227.703C105.41 227.703 103.715 231.185 100.936 232.297" stroke="#263238" stroke-width="0.874" stroke-miterlimit="10" stroke-linecap="round" stroke-linejoin="round"/>
<path d="M140.501 228.395C140.501 228.395 136.985 234.393 133.389 235.37" stroke="#263238" stroke-width="0.874" stroke-miterlimit="10" stroke-linecap="round" stroke-linejoin="round"/>
<path d="M141.338 249.131C141.338 249.131 146.217 245.366 149.502 245.524" stroke="#263238" stroke-width="0.874" stroke-miterlimit="10" stroke-linecap="round" stroke-linejoin="round"/>
<path d="M139.92 233.816C139.92 233.816 136.881 236.293 134.634 235.369" stroke="#263238" stroke-width="0.874" stroke-miterlimit="10" stroke-linecap="round" stroke-linejoin="round"/>
<path d="M145.31 398.933C169.864 398.933 165.897 405.055 190.921 405.055C215.945 405.055 231.167 405.424 231.167 274.324" stroke="#263238" stroke-width="2.622" stroke-miterlimit="10" stroke-linecap="round" stroke-linejoin="round"/>
</svg>
