<svg width="114" height="112" viewBox="0 0 114 112" fill="none" xmlns="http://www.w3.org/2000/svg">
<path d="M64.406 29.9707L52.0388 33.953L41.2674 38.6291L38.2599 39.4135C37.4927 40.1376 36.6949 40.8616 35.8049 41.5857C34.8536 42.4002 33.9636 43.1243 33.2885 43.6673C32.5213 44.2707 31.4166 45.3568 30.8335 46.0507C29.9742 47.1066 29.2991 48.2228 29.0229 49.0675C28.5012 50.6062 28.7467 52.1749 29.7594 53.623C31.0176 55.4633 33.5647 57.3338 36.5107 58.6009C38.0144 59.2646 40.5615 60.0791 42.4642 60.5618C45.625 61.3462 51.7626 62.2211 55.1383 62.3418C55.8134 62.372 56.734 62.372 56.7647 62.3418C56.8261 62.2815 57.3785 61.3161 57.9615 60.0792C60.0483 55.9159 61.5213 51.9939 62.3499 48.6753C62.8409 46.654 63.2092 43.969 63.4853 40.7711C63.5467 39.8661 63.5774 36.8794 63.516 35.8838C63.424 34.2245 63.2705 32.8971 63.0557 31.5696C63.025 31.3886 62.9943 31.2076 63.025 31.2076C63.0557 31.1775 63.1785 31.1473 64.7129 30.7249L64.406 29.9707ZM61.5827 31.5998C61.7055 31.5998 61.9816 34.4357 62.0737 36.2156C62.1044 36.5777 62.0737 36.8492 62.0737 36.8492C62.0123 36.8492 60.5086 35.9743 59.4039 35.3106C58.4832 34.7374 56.7033 33.5608 56.4271 33.3496C56.3351 33.2893 56.3351 33.2893 57.1023 33.0178C58.3912 32.5652 61.4599 31.5998 61.5827 31.5998ZM55.261 33.6513C55.3531 33.6513 55.5679 33.772 56.0896 34.0737C58.0229 35.2502 60.6314 36.6983 61.7668 37.181C62.1044 37.3319 62.1351 37.2715 61.3679 37.8146C59.6801 38.961 57.5319 40.0772 54.9541 41.1935C54.4938 41.4047 54.1256 41.5555 54.0949 41.5555C54.0642 41.5555 54.1256 41.3142 54.2176 41.0426C54.8314 38.7498 55.1996 36.4268 55.2303 34.5865C55.1689 33.6513 55.1689 33.6513 55.261 33.6513ZM53.9721 34.134C54.0335 34.1943 54.0028 36.2458 53.9107 36.819C53.7573 38.1464 53.4811 39.4135 53.0515 40.8315C52.9594 41.1633 52.8674 41.465 52.8367 41.465C52.806 41.5253 51.5171 40.2884 51.0875 39.8057C50.351 38.9912 49.7986 38.1464 49.3689 37.3319C49.1541 36.9095 48.8166 36.095 48.8472 36.095C49.0007 35.9743 53.9414 34.1038 53.9721 34.134ZM47.8652 36.4872C47.9266 36.5173 47.988 36.6682 48.0187 36.819C48.3256 37.6336 49.0007 38.8102 49.5838 39.5342C50.2282 40.3488 51.0568 41.2538 51.7319 41.827C51.9467 42.008 52.1615 42.1891 52.1922 42.2192C52.2536 42.2796 52.2536 42.2796 50.7499 42.8226C48.97 43.4863 47.0674 44.15 44.8578 44.8439C44.3361 45.0249 43.8144 45.1758 43.2927 45.3568C43.2007 45.387 43.2314 45.3266 43.4769 44.9646C44.5816 43.2751 46.2388 39.9867 47.1594 37.6336C47.3129 37.2414 47.4663 36.819 47.497 36.7285C47.5277 36.6078 47.589 36.5475 47.7118 36.4872C47.7732 36.5173 47.8346 36.4872 47.8652 36.4872ZM45.9933 37.2414C46.024 37.2715 45.533 38.237 45.0726 39.142C44.152 40.8918 43.17 42.5813 41.8504 44.6629C41.6356 45.0249 41.4208 45.3568 41.3901 45.387C41.3287 45.4473 41.3287 45.4473 41.1753 45.1456C40.8684 44.5422 40.5922 43.7277 40.4695 43.0036C40.316 42.2796 40.3467 41.0426 40.5308 40.2583C40.6536 39.6851 40.6536 39.6851 40.9298 39.5644C42.0652 38.9912 45.9319 37.2112 45.9933 37.2414ZM62.1044 37.9051V38.2973C62.1044 40.3488 61.8896 43.1545 61.552 45.2059C61.4906 45.568 61.4599 45.8697 61.4293 45.8697C61.4293 45.8697 61.1531 45.8093 60.8462 45.7188C59.4346 45.2964 57.9308 44.6629 56.5499 43.9087C55.6293 43.426 54.3097 42.6114 54.3711 42.5813C54.3711 42.5813 54.77 42.3701 55.2303 42.1287C57.0716 41.1935 58.8208 40.1678 60.3552 39.1722C60.9383 38.8102 61.7975 38.1766 61.9816 38.0258L62.1044 37.9051ZM38.9351 40.6203C38.9658 40.6203 38.9658 40.6806 38.9044 41.0125C38.8737 41.2538 38.8123 41.7064 38.8123 42.008C38.7509 43.3355 38.9658 44.331 39.6409 45.6886C39.825 46.0507 39.9785 46.3825 39.9785 46.3825C39.9171 46.4429 33.7181 48.2228 31.7848 48.7357C31.2017 48.8865 30.7107 49.0374 30.6494 49.0374C30.588 49.0675 30.588 49.0374 30.588 48.8865C30.8028 47.5289 31.8462 45.7791 33.3192 44.2707C34.3012 43.2751 35.0684 42.7019 36.388 41.9477C37.3393 41.465 38.7816 40.6505 38.9351 40.6203C38.9044 40.6203 38.9044 40.6203 38.9351 40.6203ZM53.5118 43.1846C53.5118 43.1846 53.7573 43.3053 54.0028 43.4562C55.9975 44.6026 58.7901 45.6585 61.1531 46.2015L61.3679 46.2618L61.061 46.4127C59.8028 47.1066 55.7213 48.7659 51.5478 50.3045C50.934 50.5156 50.3509 50.757 50.2282 50.7872C50.1054 50.8475 50.0134 50.8475 50.0134 50.8475C50.0134 50.8475 50.1668 50.5156 50.3816 50.1235C51.5478 47.9815 52.7139 45.3568 53.3277 43.5467C53.4504 43.3355 53.5118 43.1846 53.5118 43.1846ZM52.0388 43.6673C52.0388 43.6673 51.9774 43.8785 51.8853 44.0897C51.0568 46.0205 50.0134 48.1323 48.6324 50.5156C48.2949 51.119 47.988 51.6017 47.988 51.6017C47.988 51.6017 47.7118 51.4509 47.3742 51.2397C45.3795 50.0329 43.6303 48.5848 42.4949 47.1367L42.3414 46.9256L43.2007 46.6842C46.2388 45.8697 48.8473 44.9948 51.425 43.9087C51.7012 43.788 52.0081 43.6673 52.0388 43.6673ZM61.2758 46.8351C61.2758 47.0462 60.8155 48.9469 60.4166 50.3045C60.079 51.4509 59.8028 52.3559 59.2811 53.9549C59.0663 54.6488 58.8515 55.222 58.8515 55.222C58.8515 55.222 58.7901 55.222 58.7287 55.1918C55.9668 54.7091 53.4504 54.0152 51.1182 53.08C50.4737 52.8085 49.5224 52.4163 49.461 52.3559C49.4303 52.3258 50.0134 52.0844 50.7192 51.7827C54.9848 49.9424 59.3732 47.891 60.9076 46.9859C61.0917 46.8954 61.2451 46.8351 61.2758 46.8351ZM39.9478 47.5591C39.9785 47.5893 38.7816 49.2486 37.1245 51.5414C36.5414 52.3559 35.8663 53.2912 35.6208 53.623C35.3753 53.9851 34.9763 54.5281 34.7615 54.8599L34.3626 55.4633L33.933 55.1013C33.4419 54.7091 32.5827 53.8342 32.1837 53.3515C31.3859 52.3559 30.8335 51.3302 30.6187 50.395C30.5266 49.9424 30.5266 49.7313 30.6187 49.7011C30.7721 49.6709 33.2578 49.0977 35.5901 48.5547C36.879 48.253 38.3827 47.9211 38.9351 47.7703C39.4875 47.6496 39.9171 47.5591 39.9478 47.5591ZM41.1446 48.0116L41.4515 48.3435C42.8017 49.8218 44.1827 50.9078 45.8398 51.8732C46.1467 52.0241 46.3615 52.1749 46.3308 52.2051C46.2695 52.2654 40.5615 54.2566 37.8917 55.1315C36.4187 55.6443 35.1912 56.0667 35.1605 56.0667L34.9763 55.946L34.8229 55.8254L35.0991 55.4332C35.989 54.1962 37.0938 52.8085 39.4875 49.9726L41.1446 48.0116ZM48.6017 53.261C48.6017 53.261 49.0314 53.4119 49.5224 53.5929C50.7499 54.0454 51.7012 54.3169 52.9901 54.6488C54.5859 55.041 56.8875 55.4332 58.2377 55.5538C58.4525 55.584 58.5446 55.584 58.5139 55.6142C58.4525 55.6443 57.0716 56.0969 56.0589 56.4287C54.4631 56.9114 49.5531 58.3595 45.533 59.4758C44.7965 59.687 44.152 59.868 44.1213 59.868C44.0293 59.8981 43.7224 59.8076 43.7224 59.7775C43.7224 59.7473 43.9372 59.4758 44.2134 59.1741C45.5636 57.6053 46.8832 55.8254 48.0187 54.1661C48.3256 53.623 48.6017 53.261 48.6017 53.261ZM46.9446 53.2912C46.9446 53.2912 46.3002 54.3471 45.134 56.1572C44.643 56.9114 44.0906 57.7863 43.8758 58.088C43.6917 58.3897 43.4155 58.8422 43.2621 59.1137L42.9859 59.5964L42.8324 59.5663C42.4949 59.4758 40.1319 58.6612 39.5181 58.4199C38.7509 58.1182 37.9531 57.7561 37.3393 57.4243C36.6028 57.0321 35.6515 56.4287 35.7435 56.4287C35.7742 56.4287 37.0324 56.0667 38.5975 55.6745C42.679 54.5884 44.9499 53.9549 46.4536 53.4722C46.6991 53.3515 46.9446 53.2912 46.9446 53.2912ZM58.5753 55.9762C58.6367 56.0667 57.1023 60.1998 56.5499 61.4971C56.4271 61.7988 56.3965 61.8591 56.3044 61.8591C56.151 61.8591 53.9414 61.5574 52.6219 61.3462C50.2896 60.9842 46.3922 60.3205 45.4102 60.1093L45.1954 60.049L46.5763 59.7473C49.5838 59.0836 50.9954 58.7215 52.4684 58.2992C54.3097 57.7561 56.1203 57.0623 57.9615 56.2175C58.2684 56.0969 58.5139 55.9762 58.5753 55.9762Z" fill="url(#paint0_linear_386_16341)"/>
<path d="M51.6394 1.63924C51.4246 1.60907 48.1103 2.78565 45.9621 3.63038C43.0775 4.77679 40.8372 5.89304 39.4563 6.85844C38.9346 7.22047 38.2902 7.85401 38.1981 8.09536C38.1674 8.18587 38.1367 8.30654 38.1367 8.39705L39.3949 9.57363L42.3716 10.5089L49.4605 11.7458L57.5621 13.1034L57.6542 12.4095H57.5928L56.5187 12.2587L56.3039 11.8966C55.1992 9.99599 53.9717 7.61266 53.2658 6.01371C52.7135 4.77679 52.1917 3.32869 51.9156 2.30295C51.7621 1.66941 51.7314 1.63924 51.6394 1.63924ZM51.4859 2.09177C51.5166 2.09177 51.5473 2.36329 51.578 2.66498C51.7314 3.96224 52.0383 5.19916 52.4986 6.52658C52.8362 7.55232 52.8362 7.49198 52.4373 7.37131C51.4859 7.09979 47.2203 6.37574 44.1208 5.95338C43.6298 5.89304 43.2002 5.8327 43.2002 5.80253C43.1695 5.77237 45.4404 4.59578 46.4224 4.14325C47.7113 3.57004 51.2404 2.15211 51.4859 2.09177ZM42.4637 6.2249L42.832 6.34557C44.8267 7.00928 49.7981 7.94452 52.56 8.1557C52.8669 8.18587 53.1431 8.21604 53.1431 8.21604C53.1431 8.21604 52.8976 8.36688 52.56 8.51772C51.2404 9.18144 49.7674 9.96583 48.7547 10.5994C48.4478 10.7804 48.1716 10.9312 48.141 10.9312C48.1103 10.9312 47.8955 10.9011 47.7113 10.8709L47.3431 10.8105L46.4224 9.90549C44.7653 8.33671 43.4764 7.12996 42.9854 6.64726L42.4637 6.2249ZM42.0955 6.49641L43.415 8.12553C44.1209 9.03059 44.8574 9.87532 45.0108 10.0865C45.1642 10.2675 45.287 10.4485 45.287 10.4485C45.2563 10.4787 43.3843 10.1167 42.4023 9.90549C41.3896 9.66414 40.96 9.57363 40.3462 9.36245L39.8246 9.21161V9.09093C39.8246 8.48755 40.6224 7.55232 41.9727 6.61709L42.0955 6.49641ZM53.2965 8.69874C53.3272 8.69874 53.3886 8.78924 53.4806 9.03059C53.7875 9.72447 54.8002 11.5648 55.0457 11.9268C55.1071 12.0475 55.2605 12.0475 53.941 11.8363C50.7801 11.3234 49.7674 11.1726 49.7674 11.1424C49.7674 11.1424 49.8595 11.0821 49.9822 10.9916C50.9642 10.4485 51.9462 9.78481 52.8362 9.06076C53.051 8.87975 53.2351 8.72891 53.2965 8.69874Z" fill="url(#paint1_linear_386_16341)"/>
<path d="M38.2602 7.94336C38.2602 7.94336 38.0454 8.27522 38.2602 8.75792C38.383 9.0596 38.7512 9.42163 39.1502 9.78365C39.1502 9.78365 43.3237 13.7659 43.8147 14.3391C46.1163 16.9638 47.129 19.5282 47.2211 23.0579C47.2825 25.3507 46.8528 27.3419 45.7481 29.6649C43.8147 33.8282 39.7026 38.444 33.3809 43.5425L34.3015 43.2408C34.8846 42.7883 35.7131 42.3358 37.6158 41.31C42.0348 38.9267 46.9756 36.7545 53.0518 34.5221C61.7978 31.294 76.1904 27.4927 84.3841 26.2558L85.2433 26.1351L85.1206 25.924C84.3841 24.7775 83.8624 24.0837 83.2486 23.3294C81.4687 21.1271 79.2899 19.3773 76.62 17.8991C72.9682 15.8777 68.2116 14.309 62.1967 13.1324C61.0613 12.9212 58.5756 12.4988 56.5502 12.1972C52.2539 11.5334 49.492 11.0809 46.4539 10.568C45.3491 10.387 43.7227 10.1155 42.6486 9.87416C42.0962 9.75349 41.0221 9.51214 40.1629 9.21045C39.4264 8.99927 38.475 8.72775 38.2602 7.94336ZM40.6846 10.2664C40.6846 10.2664 40.838 10.3267 41.0528 10.387C41.4211 10.5077 41.8814 10.6586 42.4031 10.7792C42.802 10.8999 43.2317 10.9904 43.6306 11.1111C44.183 11.2619 44.674 11.3826 44.674 11.3826C44.7354 11.4429 45.6867 14.4296 45.9936 15.5459C46.1163 15.9683 46.2084 16.3604 46.2084 16.3604C46.2084 16.3604 46.0856 16.2096 45.9629 15.9984C44.8581 14.0978 43.1396 12.1972 41.1449 10.6284C40.8687 10.4172 40.6846 10.2664 40.6846 10.2664ZM45.2877 11.5033C45.3491 11.5033 45.5332 11.5334 45.7788 11.5938C47.3745 11.9558 50.2285 12.4687 52.0391 12.7704C52.346 12.8307 52.5915 12.8609 52.5915 12.891C52.5915 12.9212 52.4687 12.9815 52.346 13.0419C52.0391 13.1927 50.7809 13.9168 50.3819 14.1883C49.3385 14.8822 48.4179 15.6062 47.7428 16.2699L47.2518 16.7526C47.2518 16.7526 47.1904 16.6018 47.1597 16.3906C46.8221 15.1235 46.1163 13.2229 45.4719 11.8955C45.3491 11.7145 45.2571 11.5033 45.2877 11.5033C45.2571 11.5033 45.2571 11.5033 45.2877 11.5033ZM53.3586 13.0117C53.42 13.0419 53.5121 13.3436 53.6962 14.0375C54.0338 15.3649 54.1872 16.8733 54.1565 18.2611C54.1258 18.6533 54.1258 19.0153 54.0952 19.0455L54.0645 19.136L53.5735 18.9851C52.5608 18.6834 50.9343 18.2007 49.5534 17.8086C48.7555 17.5974 48.111 17.4164 48.111 17.3862C48.111 17.3258 49.2772 16.1794 49.7682 15.7571C50.7195 14.9425 53.2973 12.9815 53.3586 13.0117ZM54.0031 13.1022C54.0338 13.0721 57.8698 13.7358 59.619 14.0676C60.9079 14.309 62.8105 14.7012 62.9333 14.7615C62.9946 14.7917 62.7798 14.8822 62.1661 15.1537C59.711 16.2398 57.8698 17.2353 56.0285 18.4119C55.5375 18.7136 55.1385 18.9851 55.1385 18.9851C55.1385 18.9851 55.1079 18.7136 55.1079 18.4119C55.1079 16.6621 54.7396 14.9123 54.0952 13.4039C54.0645 13.2531 54.0031 13.1324 54.0031 13.1022ZM63.946 15.033C63.9766 15.0632 63.8539 15.8174 63.7311 16.2398C63.3936 17.5974 62.4729 19.6488 61.3682 21.5495C61.184 21.8813 60.9999 22.1529 60.9692 22.183C60.9385 22.183 60.693 22.0624 60.4169 21.8813C59.3428 21.2478 58.0846 20.6746 56.765 20.1315C56.3967 19.9807 56.0592 19.86 56.0592 19.8299C55.9978 19.7695 59.0052 17.8085 60.601 16.8733C61.8592 16.1191 63.9153 15.0029 63.946 15.033ZM64.6518 15.1537C64.7438 15.1537 66.4317 15.6062 67.3216 15.8777C69.5311 16.5113 72.0476 17.4164 73.674 18.1706L74.3491 18.4723L73.8581 18.5929C69.838 19.498 66.401 20.5539 63.0867 21.8813C62.8105 22.002 62.565 22.0925 62.565 22.0925C62.5343 22.0925 62.6264 21.8813 62.7491 21.6098C63.7618 19.5282 64.4063 17.356 64.5597 15.4856C64.6211 15.3045 64.6518 15.1537 64.6518 15.1537ZM47.7121 18.9851C47.7428 18.955 49.0317 19.2567 49.7375 19.4678C50.8116 19.7695 53.0518 20.4936 53.0518 20.5539C53.0518 20.5539 52.8063 20.7651 52.4994 21.0366C51.2719 22.0322 50.1057 23.0881 48.6941 24.4457C48.2645 24.8379 47.9269 25.1697 47.8962 25.1697C47.8655 25.1697 47.8655 25.1094 47.8655 25.0491C48.0803 23.5105 48.019 21.5193 47.7428 19.498C47.7428 19.1963 47.7121 18.9851 47.7121 18.9851ZM75.0243 19.0153C75.055 19.0455 74.4105 19.9807 74.0423 20.5237C73.4899 21.3081 72.6613 22.364 70.7893 24.6569C69.8073 25.8636 68.7026 27.2514 68.3343 27.7039C67.9661 28.1564 67.6592 28.5486 67.6285 28.5486C67.6285 28.5486 67.5057 28.3978 67.3523 28.1866C66.3089 26.648 65.0507 25.2904 63.5777 24.0837C63.3015 23.8423 62.9946 23.601 62.8719 23.5406C62.7798 23.4803 62.6878 23.3898 62.6878 23.3898C62.6878 23.3596 64.2835 22.6959 65.4803 22.2132C67.5978 21.3685 70.4825 20.3427 72.6306 19.7092C73.7967 19.317 75.0243 18.9851 75.0243 19.0153ZM75.7608 19.1963C75.7915 19.1963 76.037 19.2868 76.2825 19.4678C78.5534 20.7349 80.7936 22.3942 82.5428 24.0837C83.0338 24.5664 84.2613 25.8033 84.2306 25.8334C84.2306 25.8334 83.801 25.8636 83.31 25.8938C79.3819 26.1955 74.3491 27.01 69.5005 28.1564C69.1629 28.2168 68.8867 28.3073 68.856 28.3073C68.8253 28.3073 69.1936 27.9453 69.6539 27.5229C72.5079 24.8379 73.7968 23.1183 75.3311 20.1014C75.546 19.5885 75.7301 19.2265 75.7608 19.1963C75.7301 19.1963 75.7301 19.1963 75.7608 19.1963ZM54.9237 21.278C55.0465 21.3081 56.274 21.8813 57.1946 22.3037C58.0232 22.7261 59.3121 23.3898 59.3735 23.4199C59.3735 23.4199 58.9438 23.6613 58.3915 23.9328C56.6422 24.8077 55.1385 25.6223 53.5428 26.5575C53.0825 26.829 52.7142 27.0402 52.7142 27.0402C52.6835 27.0402 52.6835 27.01 52.929 26.5575C53.7576 25.0491 54.4327 23.2389 54.8317 21.4891C54.8623 21.3685 54.893 21.278 54.9237 21.278ZM53.7269 21.5193C53.7576 21.5495 53.4507 22.6657 53.2359 23.2993C52.8676 24.4759 52.1925 25.924 51.5788 27.0402C51.4253 27.3117 51.2105 27.6737 51.0877 27.8849L50.8422 28.2469L50.3206 27.7642C49.7068 27.191 49.2158 26.829 48.5713 26.4972C48.3258 26.3765 48.111 26.2558 48.111 26.2256C48.111 26.1653 49.7068 24.7172 50.9343 23.6915C51.8243 22.9372 53.6962 21.4891 53.7269 21.5193ZM61.1534 24.506L61.6137 24.8077C62.6571 25.4714 63.8846 26.3765 64.8359 27.1609C65.3576 27.5832 66.401 28.4883 66.6158 28.7297L66.7386 28.8503L65.9714 29.0615C61.6751 30.2381 58.3915 31.2638 54.5248 32.6516C54.0952 32.8024 53.7269 32.9231 53.6962 32.9231C53.6348 32.9231 53.6041 32.9834 54.5555 32.1086C57.0105 29.8761 59.22 27.4022 60.8465 25.0189L61.1534 24.506ZM59.1893 24.9887C59.22 25.0189 57.9311 26.7687 57.1639 27.7944C56.2433 29.0012 54.6168 30.9923 53.5121 32.2896C53.0518 32.8326 52.6528 33.2851 52.6221 33.2851C52.5915 33.2851 52.5915 33.1645 52.5915 32.9533C52.5915 31.837 52.3153 30.6605 51.7936 29.6347C51.5788 29.2124 51.5481 29.1218 51.5788 29.0615C51.7629 28.9107 54.4634 27.3721 56.2126 26.467C57.3481 25.8636 59.1587 24.9585 59.1893 24.9887ZM47.3745 27.8246C47.4052 27.8246 47.62 27.9453 47.8655 28.0659C48.4486 28.3978 49.001 28.7598 49.4613 29.1218C49.492 29.152 49.2465 29.333 48.9089 29.5744C48.019 30.2079 46.6687 31.2035 45.9015 31.8069C45.0729 32.4404 45.0422 32.4706 45.1343 32.3197C45.7481 31.3845 46.0549 30.8716 46.3925 30.2079C46.6687 29.6045 46.9756 28.9107 47.1904 28.2771C47.2518 28.0358 47.3438 27.8246 47.3745 27.8246ZM50.5354 30.2683C50.5967 30.2683 50.6274 30.3286 50.9036 30.7208C51.4253 31.5052 51.8549 32.5611 51.947 33.4058L51.9777 33.5868L50.6888 34.0695C48.3872 34.9444 46.2698 35.8193 44.8581 36.4529C44.4592 36.6339 43.7534 36.9657 43.293 37.1769C42.8327 37.4183 42.4645 37.5691 42.4645 37.5691C42.4645 37.5691 42.7407 37.3579 43.1089 37.0864C45.9015 35.0953 48.3258 32.8929 50.1364 30.7208C50.3206 30.4794 50.5047 30.2683 50.5354 30.2683ZM49.093 30.6001C49.1237 30.6303 48.0496 31.837 47.3438 32.5611C45.5332 34.3712 43.7534 35.7891 41.5438 37.1769C41.2676 37.3579 41.0221 37.5088 40.9914 37.5389C40.9301 37.5691 41.0221 37.4786 41.9735 36.4529C42.5872 35.7891 43.0475 35.2461 43.5999 34.5824C43.9682 34.1299 44.0295 34.0695 44.5205 33.7075C45.8708 32.6818 49.0317 30.5699 49.093 30.6001Z" fill="url(#paint2_radial_386_16341)"/>
<path d="M44.1668 105.17C43.4841 105.17 42.8841 105.069 42.3668 104.866C41.8494 104.658 41.4094 104.41 41.0468 104.122C40.6894 103.829 40.4014 103.543 40.1828 103.266C39.9694 102.989 39.8201 102.781 39.7348 102.642L40.4308 101.746C40.5268 101.895 40.6708 102.098 40.8628 102.354C41.0601 102.605 41.3108 102.861 41.6148 103.122C41.9188 103.378 42.2841 103.597 42.7108 103.778C43.1374 103.954 43.6308 104.042 44.1908 104.042C44.7241 104.042 45.2094 103.946 45.6468 103.754C46.0894 103.562 46.4441 103.277 46.7108 102.898C46.9774 102.519 47.1108 102.05 47.1108 101.49C47.1108 101.021 47.0174 100.623 46.8308 100.298C46.6494 99.9674 46.3961 99.6874 46.0708 99.4581C45.7454 99.2287 45.3721 99.0261 44.9508 98.8501C44.5348 98.6687 44.0974 98.4927 43.6388 98.3221C43.3188 98.1994 42.9828 98.0554 42.6308 97.8901C42.2841 97.7194 41.9588 97.5087 41.6548 97.2581C41.3508 97.0021 41.1028 96.6927 40.9108 96.3301C40.7241 95.9674 40.6308 95.5301 40.6308 95.0181C40.6308 94.5381 40.7214 94.0847 40.9028 93.6581C41.0841 93.2314 41.3374 92.8554 41.6628 92.5301C41.9881 92.1994 42.3774 91.9407 42.8307 91.7541C43.2841 91.5674 43.7854 91.4741 44.3348 91.4741C44.8628 91.4741 45.3481 91.5621 45.7908 91.7381C46.2334 91.9087 46.6201 92.1274 46.9508 92.3941C47.2868 92.6554 47.5454 92.9274 47.7268 93.2101L47.1028 94.0501C46.9534 93.8047 46.7454 93.5701 46.4788 93.3461C46.2121 93.1221 45.8974 92.9407 45.5348 92.8021C45.1774 92.6581 44.7801 92.5861 44.3428 92.5861C43.7988 92.5861 43.3348 92.7034 42.9508 92.9381C42.5721 93.1727 42.2841 93.4767 42.0868 93.8501C41.8894 94.2181 41.7908 94.6074 41.7908 95.0181C41.7908 95.3914 41.8681 95.7087 42.0228 95.9701C42.1774 96.2314 42.3828 96.4527 42.6388 96.6341C42.8948 96.8101 43.1748 96.9621 43.4788 97.0901C43.7881 97.2181 44.0974 97.3381 44.4068 97.4501C44.9241 97.6421 45.4201 97.8474 45.8948 98.0661C46.3748 98.2794 46.8014 98.5354 47.1748 98.8341C47.5481 99.1274 47.8441 99.4874 48.0628 99.9141C48.2814 100.335 48.3908 100.847 48.3908 101.45C48.3908 102.239 48.2041 102.911 47.8308 103.466C47.4574 104.021 46.9534 104.445 46.3188 104.738C45.6841 105.026 44.9668 105.17 44.1668 105.17ZM63.9123 105.346C63.4803 105.175 63.0403 104.975 62.5923 104.746C62.1496 104.511 61.7043 104.247 61.2563 103.954C60.1309 104.765 58.8429 105.17 57.3923 105.17C56.4536 105.17 55.5789 104.999 54.7683 104.658C53.9629 104.311 53.2589 103.829 52.6563 103.21C52.0589 102.591 51.5923 101.869 51.2563 101.042C50.9203 100.215 50.7523 99.3221 50.7523 98.3621C50.7523 97.4021 50.9229 96.5061 51.2643 95.6741C51.6056 94.8367 52.0803 94.1061 52.6883 93.4821C53.2963 92.8527 54.0029 92.3621 54.8083 92.0101C55.6189 91.6527 56.4883 91.4741 57.4163 91.4741C58.3443 91.4741 59.2109 91.6501 60.0163 92.0021C60.8216 92.3541 61.5256 92.8447 62.1283 93.4741C62.7363 94.0981 63.2109 94.8261 63.5523 95.6581C63.8936 96.4847 64.0643 97.3754 64.0643 98.3301C64.0643 99.2581 63.8909 100.141 63.5443 100.978C63.2029 101.81 62.7149 102.533 62.0803 103.146C62.4963 103.381 62.9016 103.591 63.2963 103.778C63.6909 103.965 64.0749 104.122 64.4483 104.25L63.9123 105.346ZM57.3843 103.994C57.9016 103.994 58.3976 103.922 58.8723 103.778C59.3469 103.634 59.7869 103.423 60.1923 103.146C59.7549 102.826 59.3363 102.485 58.9363 102.122C58.5363 101.754 58.1629 101.375 57.8163 100.986L58.3603 100.346C59.1496 101.151 60.0189 101.874 60.9683 102.514C61.5389 101.997 61.9763 101.375 62.2803 100.65C62.5896 99.9247 62.7443 99.1514 62.7443 98.3301C62.7443 97.5301 62.6083 96.7861 62.3363 96.0981C62.0696 95.4047 61.6936 94.8021 61.2083 94.2901C60.7283 93.7727 60.1629 93.3701 59.5123 93.0821C58.8669 92.7941 58.1683 92.6501 57.4163 92.6501C56.6589 92.6501 55.9549 92.7941 55.3043 93.0821C54.6536 93.3701 54.0856 93.7727 53.6003 94.2901C53.1149 94.8074 52.7363 95.4127 52.4643 96.1061C52.1923 96.7994 52.0563 97.5514 52.0563 98.3621C52.0563 99.1674 52.1896 99.9141 52.4563 100.602C52.7229 101.29 53.0963 101.887 53.5763 102.394C54.0563 102.901 54.6189 103.295 55.2643 103.578C55.9149 103.855 56.6216 103.994 57.3843 103.994ZM67.652 104.914V91.7141H68.868V103.842H74.396V104.914H67.652Z" fill="#343A3F"/>
<defs>
<linearGradient id="paint0_linear_386_16341" x1="38.0735" y1="56.3364" x2="42.5061" y2="53.6722" gradientUnits="userSpaceOnUse">
<stop stop-color="#909CA9"/>
<stop offset="1" stop-color="#EDEDEE"/>
</linearGradient>
<linearGradient id="paint1_linear_386_16341" x1="38.1731" y1="7.38247" x2="41.7718" y2="7.38247" gradientUnits="userSpaceOnUse">
<stop stop-color="#939FAB"/>
<stop offset="1" stop-color="#DCDEE1"/>
</linearGradient>
<radialGradient id="paint2_radial_386_16341" cx="0" cy="0" r="1" gradientUnits="userSpaceOnUse" gradientTransform="translate(56.3163 23.5848) rotate(-171.6) scale(4.63796 9.12803)">
<stop stop-color="#EE352C"/>
<stop offset="1" stop-color="#A91D22"/>
</radialGradient>
</defs>
</svg>
