<svg width="114" height="112" viewBox="0 0 114 112" fill="none" xmlns="http://www.w3.org/2000/svg">
<path d="M54.4525 2.72266H65.0481V46.6679C59.6209 47.5969 55.6255 47.9624 51.3026 47.9624C38.3615 47.9502 31.625 42.7185 31.625 32.6706C31.625 22.9895 38.7705 16.7065 49.8434 16.7065C51.5617 16.7065 52.8707 16.8288 54.4525 17.1954V2.72266ZM54.8238 25.1149C53.5829 24.7481 52.5602 24.6259 51.2511 24.6259C45.892 24.6259 42.7965 27.584 42.7965 32.768C42.7965 37.8152 45.7558 40.6021 51.183 40.6021C52.3556 40.6021 53.3102 40.5424 54.8238 40.359V25.1149Z" fill="#2BA977"/>
<path d="M82.3753 17.8863V39.8891C82.3753 47.4664 81.7481 51.1103 79.9071 54.2519C78.1888 57.2722 75.9253 59.1768 71.2479 61.2803L61.416 57.0878C66.0933 55.1208 68.3569 53.3827 69.8025 50.7302C71.316 48.0178 71.7933 44.8762 71.7933 36.613V17.8865L82.3753 17.8863ZM70.7255 2.72266H81.3211V12.4649H70.7255V2.72266Z" fill="#2BA977"/>
<path d="M28.0504 104.914V91.7141H31.0264C31.9598 91.7141 32.8291 91.8821 33.6344 92.2181C34.4451 92.5541 35.1518 93.0234 35.7544 93.6261C36.3571 94.2234 36.8291 94.9221 37.1704 95.7221C37.5118 96.5221 37.6824 97.3887 37.6824 98.3221C37.6824 99.2501 37.5144 100.114 37.1784 100.914C36.8424 101.714 36.3704 102.415 35.7624 103.018C35.1598 103.615 34.4531 104.082 33.6424 104.418C32.8371 104.749 31.9651 104.914 31.0264 104.914H28.0504ZM29.2664 103.826H30.9144C31.6931 103.826 32.4131 103.687 33.0744 103.41C33.7411 103.127 34.3224 102.738 34.8184 102.242C35.3198 101.741 35.7091 101.157 35.9864 100.49C36.2638 99.8181 36.4024 99.0927 36.4024 98.3141C36.4024 97.5354 36.2638 96.8127 35.9864 96.1461C35.7091 95.4794 35.3198 94.8954 34.8184 94.3941C34.3224 93.8927 33.7411 93.5034 33.0744 93.2261C32.4078 92.9434 31.6878 92.8021 30.9144 92.8021H29.2664V103.826ZM39.6878 109.314C39.4051 109.314 39.1305 109.279 38.8638 109.21C38.5971 109.141 38.3785 109.039 38.2078 108.906L38.5518 107.97C38.7971 108.173 39.1065 108.274 39.4798 108.274C40.3171 108.274 40.7358 107.719 40.7358 106.61V96.7221H41.9038V106.714C41.9038 107.557 41.7145 108.199 41.3358 108.642C40.9571 109.09 40.4078 109.314 39.6878 109.314ZM41.3198 95.0661C41.1811 95.0661 41.0531 95.0341 40.9358 94.9701C40.8185 94.9007 40.7251 94.8074 40.6558 94.6901C40.5865 94.5727 40.5518 94.4447 40.5518 94.3061C40.5518 94.1621 40.5865 94.0314 40.6558 93.9141C40.7251 93.7967 40.8185 93.7061 40.9358 93.6421C41.0531 93.5727 41.1811 93.5381 41.3198 93.5381C41.4585 93.5381 41.5865 93.5727 41.7038 93.6421C41.8211 93.7061 41.9145 93.7967 41.9838 93.9141C42.0531 94.0314 42.0878 94.1594 42.0878 94.2981C42.0878 94.4367 42.0531 94.5647 41.9838 94.6821C41.9145 94.7994 41.8211 94.8927 41.7038 94.9621C41.5865 95.0314 41.4585 95.0661 41.3198 95.0661ZM48.8488 105.17C48.0808 105.17 47.3875 104.983 46.7688 104.61C46.1555 104.231 45.6675 103.714 45.3048 103.058C44.9475 102.402 44.7688 101.653 44.7688 100.81C44.7688 99.9781 44.9448 99.2367 45.2968 98.5861C45.6541 97.9301 46.1395 97.4127 46.7528 97.0341C47.3715 96.6554 48.0701 96.4661 48.8488 96.4661C49.5901 96.4661 50.2621 96.6394 50.8648 96.9861C51.4675 97.3327 51.9261 97.8127 52.2408 98.4261V96.7221H53.4088V104.914H52.2408V103.186C51.8888 103.805 51.4168 104.29 50.8248 104.642C50.2328 104.994 49.5741 105.17 48.8488 105.17ZM49.1368 104.154C49.7501 104.154 50.2915 104.013 50.7608 103.73C51.2355 103.442 51.6088 103.047 51.8808 102.546C52.1528 102.039 52.2888 101.463 52.2888 100.818C52.2888 100.167 52.1528 99.5914 51.8808 99.0901C51.6141 98.5887 51.2435 98.1967 50.7688 97.9141C50.2941 97.6261 49.7501 97.4821 49.1368 97.4821C48.5235 97.4821 47.9795 97.6261 47.5048 97.9141C47.0301 98.1967 46.6568 98.5887 46.3848 99.0901C46.1128 99.5914 45.9768 100.167 45.9768 100.818C45.9768 101.463 46.1128 102.039 46.3848 102.546C46.6568 103.047 47.0301 103.442 47.5048 103.73C47.9795 104.013 48.5235 104.154 49.1368 104.154ZM56.8528 104.914V96.7221H58.0208V97.8421C58.2448 97.4581 58.5915 97.1327 59.0608 96.8661C59.5301 96.5994 60.1035 96.4661 60.7808 96.4661C61.4155 96.4661 61.9621 96.5967 62.4208 96.8581C62.8795 97.1194 63.2315 97.5007 63.4768 98.0021C63.7221 98.4981 63.8448 99.0981 63.8448 99.8021V104.914H62.6768V100.026C62.6768 99.1781 62.4795 98.5327 62.0848 98.0901C61.6901 97.6421 61.1328 97.4181 60.4128 97.4181C59.9115 97.4181 59.4821 97.5194 59.1248 97.7221C58.7728 97.9194 58.5008 98.1834 58.3088 98.5141C58.1168 98.8394 58.0208 99.1941 58.0208 99.5781V104.914H56.8528ZM70.7501 109.314C69.7154 109.314 68.8407 109.111 68.1261 108.706C67.4114 108.301 66.8807 107.709 66.5341 106.93L67.5181 106.474C67.7687 107.039 68.1847 107.487 68.7661 107.818C69.3474 108.154 70.0087 108.322 70.7501 108.322C71.3741 108.322 71.9314 108.197 72.4221 107.946C72.9181 107.701 73.3074 107.343 73.5901 106.874C73.8781 106.405 74.0221 105.842 74.0221 105.186V103.186C73.6807 103.805 73.2114 104.29 72.6141 104.642C72.0221 104.994 71.3607 105.17 70.6301 105.17C69.8674 105.17 69.1767 104.983 68.5581 104.61C67.9447 104.237 67.4567 103.722 67.0941 103.066C66.7367 102.41 66.5581 101.661 66.5581 100.818C66.5581 99.9807 66.7367 99.2367 67.0941 98.5861C67.4514 97.9301 67.9367 97.4127 68.5501 97.0341C69.1687 96.6554 69.8701 96.4661 70.6541 96.4661C71.3794 96.4661 72.0381 96.6394 72.6301 96.9861C73.2274 97.3327 73.6914 97.8127 74.0221 98.4261V96.7221H75.1901V105.138C75.1901 106.045 75.0114 106.807 74.6541 107.426C74.2967 108.05 73.7847 108.519 73.1181 108.834C72.4567 109.154 71.6674 109.314 70.7501 109.314ZM70.9101 104.154C71.5287 104.154 72.0754 104.013 72.5501 103.73C73.0247 103.442 73.3981 103.047 73.6701 102.546C73.9421 102.039 74.0781 101.466 74.0781 100.826C74.0781 100.175 73.9421 99.5994 73.6701 99.0981C73.3981 98.5914 73.0247 98.1967 72.5501 97.9141C72.0754 97.6261 71.5314 97.4821 70.9181 97.4821C70.3047 97.4821 69.7607 97.6261 69.2861 97.9141C68.8114 98.1967 68.4381 98.5914 68.1661 99.0981C67.8941 99.5994 67.7581 100.175 67.7581 100.826C67.7581 101.466 67.8914 102.039 68.1581 102.546C68.4301 103.047 68.8034 103.442 69.2781 103.73C69.7581 104.013 70.3021 104.154 70.9101 104.154ZM82.4679 105.17C81.6146 105.17 80.8439 104.986 80.1559 104.618C79.4733 104.25 78.9319 103.738 78.5319 103.082C78.1319 102.426 77.9319 101.671 77.9319 100.818C77.9319 99.9594 78.1319 99.2047 78.5319 98.5541C78.9319 97.8981 79.4733 97.3861 80.1559 97.0181C80.8386 96.6501 81.6093 96.4661 82.4679 96.4661C83.3213 96.4661 84.0893 96.6501 84.7719 97.0181C85.4599 97.3861 86.0039 97.8981 86.4039 98.5541C86.8039 99.2047 87.0039 99.9594 87.0039 100.818C87.0039 101.671 86.8039 102.426 86.4039 103.082C86.0039 103.738 85.4599 104.25 84.7719 104.618C84.0893 104.986 83.3213 105.17 82.4679 105.17ZM82.4679 104.13C83.1079 104.13 83.6786 103.989 84.1799 103.706C84.6813 103.423 85.0759 103.034 85.3639 102.538C85.6519 102.037 85.7959 101.463 85.7959 100.818C85.7959 100.173 85.6519 99.6021 85.3639 99.1061C85.0759 98.6047 84.6813 98.2127 84.1799 97.9301C83.6786 97.6474 83.1079 97.5061 82.4679 97.5061C81.8279 97.5061 81.2573 97.6474 80.7559 97.9301C80.2546 98.2127 79.8599 98.6047 79.5719 99.1061C79.2839 99.6021 79.1399 100.173 79.1399 100.818C79.1399 101.458 79.2839 102.029 79.5719 102.53C79.8599 103.031 80.2546 103.423 80.7559 103.706C81.2573 103.989 81.8279 104.13 82.4679 104.13Z" fill="#343A3F"/>
</svg>
