<svg width="114" height="112" viewBox="0 0 114 112" fill="none" xmlns="http://www.w3.org/2000/svg">
<path d="M91.1823 32.008C91.1823 27.3886 85.5108 23.0108 76.8153 20.296C78.822 11.2561 77.9301 4.06396 74.0005 1.76135C73.0947 1.22123 72.0356 0.965385 70.879 0.965385V4.13503C71.5201 4.13503 72.0357 4.26295 72.4676 4.50459C74.3628 5.61325 75.185 9.83471 74.5439 15.2643C74.3907 16.6004 74.1398 18.0076 73.8333 19.4431C71.102 18.7609 68.1199 18.235 64.9846 17.8938C63.1033 15.2643 61.1525 12.8764 59.1876 10.787C63.7304 6.48028 67.9945 4.12082 70.893 4.12082V0.951172C67.0609 0.951172 62.0443 3.73705 56.972 8.56969C51.8996 3.76548 46.8831 1.00803 43.0509 1.00803V4.17767C45.9355 4.17767 50.2135 6.52293 54.7563 10.8012C52.8054 12.8906 50.8545 15.2643 49.0012 17.8938C45.8519 18.235 42.8698 18.7609 40.1385 19.4574C39.818 18.036 39.5811 16.6573 39.4139 15.3354C38.759 9.90577 39.5672 5.68432 41.4484 4.56144C41.8665 4.30559 42.4099 4.19189 43.0509 4.19189V1.02224C41.8804 1.02224 40.8213 1.27809 39.9016 1.8182C35.9859 4.12082 35.108 11.2987 37.1286 20.3102C28.461 23.0392 22.8174 27.4028 22.8174 32.008C22.8174 36.6274 28.4889 41.0053 37.1843 43.7201C35.1777 52.7599 36.0695 59.9521 39.9992 62.2547C40.905 62.7948 41.964 63.0506 43.1346 63.0506C46.9667 63.0506 51.9832 60.2648 57.0556 55.4321C62.1279 60.2363 67.1445 62.9938 70.9766 62.9938C72.1471 62.9938 73.2062 62.7379 74.1259 62.1978C78.0416 59.8952 78.9195 52.7173 76.899 43.7058C85.5386 40.991 91.1823 36.6132 91.1823 32.008ZM73.039 22.5275C72.5234 24.3611 71.8824 26.2515 71.1577 28.1419C70.5864 27.0048 69.9872 25.8677 69.3323 24.7306C68.6913 23.5935 68.0085 22.4849 67.3256 21.4046C69.3044 21.7031 71.2135 22.0727 73.039 22.5275ZM66.6568 37.665C65.5698 39.5839 64.455 41.4032 63.2984 43.0947C61.2221 43.2794 59.118 43.3789 56.9998 43.3789C54.8957 43.3789 52.7915 43.2794 50.7291 43.1089C49.5725 41.4174 48.4438 39.6123 47.3568 37.7077C46.2978 35.8457 45.3363 33.9553 44.4584 32.0506C45.3223 30.146 46.2978 28.2414 47.3429 26.3794C48.4298 24.4606 49.5446 22.6412 50.7012 20.9498C52.7775 20.765 54.8817 20.6655 56.9998 20.6655C59.104 20.6655 61.2082 20.765 63.2706 20.9356C64.4272 22.627 65.5559 24.4321 66.6428 26.3368C67.7019 28.1988 68.6634 30.0892 69.5413 31.9938C68.6634 33.8984 67.7019 35.8031 66.6568 37.665ZM71.1577 35.8173C71.9102 37.7219 72.5513 39.6265 73.0808 41.4743C71.2553 41.9291 69.3323 42.3129 67.3396 42.6114C68.0224 41.5169 68.7052 40.3941 69.3462 39.2428C69.9872 38.1057 70.5864 36.9544 71.1577 35.8173ZM57.0277 50.9832C55.7318 49.6187 54.4358 48.0979 53.1538 46.4349C54.4079 46.4917 55.6899 46.5344 56.9859 46.5344C58.2958 46.5344 59.5917 46.5059 60.8598 46.4349C59.6057 48.0979 58.3097 49.6187 57.0277 50.9832ZM46.6601 42.6114C44.6813 42.3129 42.7722 41.9434 40.9468 41.4885C41.4624 39.655 42.1034 37.7645 42.828 35.8741C43.3993 37.0112 43.9985 38.1483 44.6535 39.2854C45.3084 40.4225 45.9773 41.5312 46.6601 42.6114ZM56.958 13.0328C58.254 14.3973 59.5499 15.9182 60.8319 17.5812C59.5778 17.5243 58.2958 17.4817 56.9998 17.4817C55.6899 17.4817 54.394 17.5101 53.1259 17.5812C54.3801 15.9182 55.676 14.3973 56.958 13.0328ZM46.6462 21.4046C45.9634 22.4991 45.2805 23.622 44.6395 24.7733C43.9985 25.9104 43.3993 27.0474 42.828 28.1845C42.0755 26.2799 41.4345 24.3753 40.905 22.5275C42.7304 22.0869 44.6535 21.7031 46.6462 21.4046ZM34.035 39.2001C29.1021 37.0539 25.9109 34.2396 25.9109 32.008C25.9109 29.7765 29.1021 26.9479 34.035 24.8159C35.2334 24.29 36.5433 23.8209 37.895 23.3803C38.6893 26.1662 39.7344 29.0658 41.0304 32.0364C39.7484 34.9929 38.7172 37.8782 37.9368 40.6499C36.5573 40.2093 35.2474 39.726 34.035 39.2001ZM41.532 59.5114C39.6369 58.4028 38.8147 54.1813 39.4557 48.7517C39.609 47.4156 39.8598 46.0085 40.1664 44.5729C42.8977 45.2551 45.8797 45.781 49.0151 46.1222C50.8963 48.7517 52.8472 51.1396 54.812 53.229C50.2692 57.5357 46.0052 59.8952 43.1067 59.8952C42.4796 59.881 41.9501 59.7531 41.532 59.5114ZM74.5858 48.6806C75.2407 54.1102 74.4325 58.3317 72.5512 59.4546C72.1332 59.7104 71.5897 59.8241 70.9487 59.8241C68.0642 59.8241 63.7862 57.4789 59.2434 53.2006C61.1943 51.1112 63.1452 48.7375 64.9985 46.108C68.1478 45.7668 71.1299 45.2409 73.8611 44.5445C74.1816 45.98 74.4325 47.3588 74.5858 48.6806ZM79.9507 39.2001C78.7523 39.726 77.4424 40.1951 76.0907 40.6357C75.2964 37.8498 74.2513 34.9502 72.9554 31.9796C74.2374 29.0231 75.2686 26.1378 76.0489 23.3661C77.4285 23.8067 78.7384 24.29 79.9646 24.8159C84.8976 26.9622 88.0887 29.7765 88.0887 32.008C88.0748 34.2396 84.8837 37.0681 79.9507 39.2001Z" fill="#61DAFB"/>
<path d="M56.9855 38.4991C60.5026 38.4991 63.3537 35.5909 63.3537 32.0035C63.3537 28.416 60.5026 25.5078 56.9855 25.5078C53.4684 25.5078 50.6172 28.416 50.6172 32.0035C50.6172 35.5909 53.4684 38.4991 56.9855 38.4991Z" fill="#61DAFB"/>
<path d="M35.1833 104.914V91.7141H38.6073C39.4713 91.7141 40.2179 91.8634 40.8473 92.1621C41.4766 92.4607 41.9619 92.8901 42.3033 93.4501C42.6499 94.0047 42.8233 94.6687 42.8233 95.4421C42.8233 96.1514 42.6766 96.7781 42.3833 97.3221C42.0953 97.8607 41.6846 98.2981 41.1513 98.6341C40.6233 98.9647 39.9939 99.1674 39.2633 99.2421L43.6553 104.914H42.1113L37.9033 99.3541H36.3993V104.914H35.1833ZM36.3993 98.2981H38.3193C38.9913 98.2981 39.5699 98.1834 40.0553 97.9541C40.5406 97.7247 40.9139 97.3994 41.1753 96.9781C41.4419 96.5514 41.5753 96.0501 41.5753 95.4741C41.5753 94.6101 41.2873 93.9327 40.7113 93.4421C40.1353 92.9514 39.3379 92.7061 38.3193 92.7061H36.3993V98.2981ZM49.3881 105.17C48.5295 105.17 47.7615 104.981 47.0841 104.602C46.4121 104.223 45.8841 103.709 45.5001 103.058C45.1161 102.402 44.9241 101.666 44.9241 100.85C44.9241 100.237 45.0335 99.6661 45.2521 99.1381C45.4761 98.6047 45.7855 98.1381 46.1801 97.7381C46.5748 97.3381 47.0335 97.0261 47.5561 96.8021C48.0788 96.5781 48.6361 96.4661 49.2281 96.4661C50.0388 96.4661 50.7588 96.6447 51.3881 97.0021C52.0228 97.3541 52.5241 97.8421 52.8921 98.4661C53.2655 99.0901 53.4628 99.8101 53.4841 100.626C53.4841 100.69 53.4815 100.743 53.4761 100.786C53.4761 100.823 53.4708 100.871 53.4601 100.93H46.0841C46.0841 101.57 46.2281 102.135 46.5161 102.626C46.8041 103.117 47.1988 103.503 47.7001 103.786C48.2068 104.063 48.7855 104.202 49.4361 104.202C50.0548 104.202 50.6095 104.074 51.1001 103.818C51.5961 103.557 52.0095 103.183 52.3401 102.698L53.2041 103.162C52.8148 103.797 52.2841 104.29 51.6121 104.642C50.9455 104.994 50.2041 105.17 49.3881 105.17ZM46.1481 100.05H52.3161C52.2468 99.5381 52.0681 99.0874 51.7801 98.6981C51.4921 98.3034 51.1268 97.9941 50.6841 97.7701C50.2468 97.5461 49.7668 97.4341 49.2441 97.4341C48.7055 97.4341 48.2148 97.5461 47.7721 97.7701C47.3295 97.9887 46.9641 98.2954 46.6761 98.6901C46.3935 99.0794 46.2175 99.5327 46.1481 100.05ZM59.6535 105.17C58.8855 105.17 58.1922 104.983 57.5735 104.61C56.9602 104.231 56.4722 103.714 56.1095 103.058C55.7522 102.402 55.5735 101.653 55.5735 100.81C55.5735 99.9781 55.7495 99.2367 56.1015 98.5861C56.4588 97.9301 56.9442 97.4127 57.5575 97.0341C58.1762 96.6554 58.8748 96.4661 59.6535 96.4661C60.3948 96.4661 61.0668 96.6394 61.6695 96.9861C62.2722 97.3327 62.7308 97.8127 63.0455 98.4261V96.7221H64.2135V104.914H63.0455V103.186C62.6935 103.805 62.2215 104.29 61.6295 104.642C61.0375 104.994 60.3788 105.17 59.6535 105.17ZM59.9415 104.154C60.5548 104.154 61.0962 104.013 61.5655 103.73C62.0402 103.442 62.4135 103.047 62.6855 102.546C62.9575 102.039 63.0935 101.463 63.0935 100.818C63.0935 100.167 62.9575 99.5914 62.6855 99.0901C62.4188 98.5887 62.0482 98.1967 61.5735 97.9141C61.0988 97.6261 60.5548 97.4821 59.9415 97.4821C59.3282 97.4821 58.7842 97.6261 58.3095 97.9141C57.8348 98.1967 57.4615 98.5887 57.1895 99.0901C56.9175 99.5914 56.7815 100.167 56.7815 100.818C56.7815 101.463 56.9175 102.039 57.1895 102.546C57.4615 103.047 57.8348 103.442 58.3095 103.73C58.7842 104.013 59.3282 104.154 59.9415 104.154ZM71.4655 105.17C70.8522 105.17 70.2762 105.063 69.7375 104.85C69.1988 104.631 68.7268 104.325 68.3215 103.93C67.9162 103.535 67.5988 103.074 67.3695 102.546C67.1402 102.018 67.0255 101.442 67.0255 100.818C67.0255 100.199 67.1375 99.6261 67.3615 99.0981C67.5855 98.5701 67.8975 98.1087 68.2975 97.7141C68.7028 97.3194 69.1748 97.0127 69.7135 96.7941C70.2522 96.5754 70.8362 96.4661 71.4655 96.4661C72.0042 96.4661 72.5162 96.5461 73.0015 96.7061C73.4868 96.8661 73.9055 97.0874 74.2575 97.3701L73.7775 98.1541C73.1802 97.6901 72.4548 97.4581 71.6015 97.4581C70.9295 97.4581 70.3375 97.6074 69.8255 97.9061C69.3188 98.1994 68.9242 98.6021 68.6415 99.1141C68.3588 99.6207 68.2175 100.189 68.2175 100.818C68.2175 101.453 68.3615 102.026 68.6495 102.538C68.9375 103.045 69.3375 103.445 69.8495 103.738C70.3615 104.031 70.9482 104.178 71.6095 104.178C72.0255 104.178 72.4175 104.119 72.7855 104.002C73.1588 103.879 73.4868 103.706 73.7695 103.482L74.2575 104.266C73.9002 104.543 73.4815 104.762 73.0015 104.922C72.5215 105.087 72.0095 105.17 71.4655 105.17ZM78.76 105.17C78.1467 105.17 77.6693 104.965 77.328 104.554C76.992 104.138 76.824 103.554 76.824 102.802V97.6021H75.992V96.7221H76.824V93.6581H77.992V96.7221H80.032V97.6021H77.992V102.738C77.992 103.191 78.08 103.538 78.256 103.778C78.432 104.018 78.6827 104.138 79.008 104.138C79.3227 104.138 79.6 104.05 79.84 103.874L80.136 104.802C79.9547 104.914 79.7413 105.002 79.496 105.066C79.2507 105.135 79.0053 105.17 78.76 105.17Z" fill="#343A3F"/>
</svg>
