<svg width="80" height="80" viewBox="0 0 80 80" fill="none" xmlns="http://www.w3.org/2000/svg">
<g id="Icon/ anywhere home_work_FILL0_wght200_GRAD0_opsz48 1">
<path id="Vector" d="M58.0837 28.3394H62.4427V23.9804H58.0837V28.3394ZM58.0837 42.0766H62.4427V37.7176H58.0837V42.0766ZM58.0837 55.7946H62.4427V51.4356H58.0837V55.7946ZM51.8145 66.6663V64.1023H70.7697V15.8971H37.4042V25.3587L34.8402 23.5894V13.333H73.3337V66.6663H51.8145ZM6.66699 66.6663V38.7176L26.3017 24.7304L45.9171 38.6963V66.6663H31.0388V51.6471H21.5645V66.6663H6.66699ZM9.23116 64.1023H19.0004V49.083H33.603V64.1023H43.353V40.0189L26.3017 28.0125L9.23116 40.0713V64.1023Z" fill="url(#paint0_linear_210_2741)"/>
</g>
<defs>
<linearGradient id="paint0_linear_210_2741" x1="11.667" y1="22.1129" x2="70.8461" y2="62.3542" gradientUnits="userSpaceOnUse">
<stop stop-color="#3663A8"/>
<stop offset="1" stop-color="#FF8B0F"/>
</linearGradient>
</defs>
</svg>
