<svg width="80" height="80" viewBox="0 0 80 80" fill="none" xmlns="http://www.w3.org/2000/svg">
<g id="Icon/ security shield_FILL0_wght200_GRAD0_opsz48 1">
<path id="Vector" d="M40.0003 69.8527C33.2909 67.8228 27.7247 63.7149 23.3016 57.529C18.8785 51.3431 16.667 44.4125 16.667 36.7373V18.9552L40.0003 10.2373L63.3337 18.9552V36.7373C63.3337 44.4125 61.1221 51.3431 56.6991 57.529C52.276 63.7149 46.7097 67.8228 40.0003 69.8527ZM40.0003 67.122C46.0473 65.1818 51.0206 61.3773 54.9202 55.7085C58.8198 50.0397 60.7696 43.716 60.7696 36.7373V20.7245L40.0003 12.9425L19.2311 20.7245V36.7373C19.2311 43.716 21.1809 50.0397 25.0804 55.7085C28.98 61.3773 33.9533 65.1818 40.0003 67.122Z" fill="url(#paint0_linear_210_3168)"/>
</g>
<defs>
<linearGradient id="paint0_linear_210_3168" x1="20.167" y1="20.0514" x2="71.4479" y2="41.8886" gradientUnits="userSpaceOnUse">
<stop stop-color="#3663A8"/>
<stop offset="1" stop-color="#FF8B0F"/>
</linearGradient>
</defs>
</svg>
