<svg width="80" height="80" viewBox="0 0 80 80" fill="none" xmlns="http://www.w3.org/2000/svg">
<g id="Icon/ minize it account_balance_wallet_FILL0_wght200_GRAD0_opsz48 2">
<path id="Vector" d="M15.8971 55.3912V64.1027V15.8976V55.3912ZM17.9483 66.6668C16.7016 66.6668 15.6206 66.2093 14.7056 65.2942C13.7905 64.3792 13.333 63.2983 13.333 62.0515V17.9488C13.333 16.702 13.7905 15.6211 14.7056 14.7061C15.6206 13.791 16.7016 13.3335 17.9483 13.3335H62.051C63.2978 13.3335 64.3787 13.791 65.2938 14.7061C66.2088 15.6211 66.6663 16.702 66.6663 17.9488V29.0514H64.1023V17.9488C64.1023 17.3505 63.9099 16.8591 63.5253 16.4745C63.1407 16.0899 62.6493 15.8976 62.051 15.8976H17.9483C17.3501 15.8976 16.8586 16.0899 16.474 16.4745C16.0894 16.8591 15.8971 17.3505 15.8971 17.9488V62.0515C15.8971 62.6498 16.0894 63.1412 16.474 63.5258C16.8586 63.9104 17.3501 64.1027 17.9483 64.1027H62.051C62.6493 64.1027 63.1407 63.9104 63.5253 63.5258C63.9099 63.1412 64.1023 62.6498 64.1023 62.0515V50.9682H66.6663V62.0515C66.6663 63.2983 66.2088 64.3792 65.2938 65.2942C64.3787 66.2093 63.2978 66.6668 62.051 66.6668H17.9483ZM46.0409 52.8271C44.6509 52.8271 43.4483 52.3282 42.4329 51.3306C41.4176 50.3329 40.9099 49.1245 40.9099 47.7053V32.3142C40.9099 30.8951 41.4176 29.6867 42.4329 28.689C43.4483 27.6913 44.6509 27.1924 46.0409 27.1924H64.8971C66.3392 27.1924 67.5673 27.6913 68.5813 28.689C69.5953 29.6867 70.1023 30.8951 70.1023 32.3142V47.7053C70.1023 49.1245 69.5953 50.3329 68.5813 51.3306C67.5673 52.3282 66.3392 52.8271 64.8971 52.8271H46.0409ZM65.4868 50.263C66.0424 50.263 66.5232 50.0707 66.9292 49.6861C67.3352 49.3015 67.5382 48.81 67.5382 48.2117V31.8078C67.5382 31.2523 67.3352 30.7715 66.9292 30.3656C66.5232 29.9596 66.0424 29.7566 65.4868 29.7566H45.5253C44.9698 29.7566 44.489 29.9596 44.083 30.3656C43.677 30.7715 43.474 31.2523 43.474 31.8078V48.2117C43.474 48.81 43.677 49.3015 44.083 49.6861C44.489 50.0707 44.9698 50.263 45.5253 50.263H65.4868ZM53.8398 45.1412C55.2413 45.1412 56.4452 44.6395 57.4516 43.6361C58.458 42.6327 58.9613 41.4144 58.9613 39.9809C58.9613 38.5226 58.4522 37.3044 57.434 36.3262C56.4158 35.3482 55.2112 34.8592 53.8202 34.8592C52.3757 34.8592 51.1471 35.3482 50.1343 36.3262C49.1215 37.3044 48.6151 38.5226 48.6151 39.9809C48.6151 41.4144 49.123 42.6327 50.1389 43.6361C51.1549 44.6395 52.3885 45.1412 53.8398 45.1412Z" fill="url(#paint0_linear_210_1899)"/>
</g>
<defs>
<linearGradient id="paint0_linear_210_1899" x1="17.5907" y1="22.1134" x2="72.7808" y2="54.0706" gradientUnits="userSpaceOnUse">
<stop stop-color="#3663A8"/>
<stop offset="1" stop-color="#FF8B0F"/>
</linearGradient>
</defs>
</svg>
