<svg width="299" height="52" viewBox="0 0 299 52" fill="none" xmlns="http://www.w3.org/2000/svg">
<g clip-path="url(#clip0_4_418)">
<path d="M205.1 26.718C204.343 26.7465 203.585 26.6817 202.842 26.5247C202.659 26.4974 202.484 26.4286 202.329 26.3231C202.174 26.2176 202.043 26.0779 201.944 25.9138C201.79 25.5008 201.722 25.0577 201.746 24.6147V0.427612H197.883V23.741C197.804 25.1733 198.014 26.607 198.501 27.9474C198.7 28.3743 198.989 28.748 199.346 29.04C199.703 29.3321 200.119 29.5349 200.561 29.6331C202.055 29.9433 203.578 30.073 205.1 30.0197V26.718ZM39.2522 29.7336L33.3669 21.7305H31.4026V29.7336H27.5404V0.427612H31.4026V18.0731H33.3669L39.3037 10.186H43.5705L36.4861 19.6041L43.7029 29.7336H39.2522ZM59.402 27.151H59.1445C58.707 28.0994 57.9754 28.863 57.0699 29.3161C55.859 29.8415 54.5532 30.0817 53.2445 30.0197C51.9041 30.103 50.5665 29.8122 49.3675 29.1769C48.4909 28.6318 47.85 27.7502 47.5799 26.718C47.2394 25.3086 47.0834 23.857 47.1164 22.4033V10.186H50.9786V20.6789C50.9329 21.9307 51.0243 23.1838 51.2508 24.4137C51.3016 24.7326 51.4279 25.0329 51.6182 25.287C51.8085 25.5411 52.0566 25.7407 52.3396 25.8674C53.2034 26.1334 54.1039 26.2432 55.0027 26.1922C55.9727 26.2636 56.9426 26.0522 57.8056 25.5813C58.1079 25.3706 58.3663 25.0974 58.5649 24.7784C58.7634 24.4593 58.8981 24.1011 58.9606 23.7255C59.1725 22.5823 59.2638 21.4179 59.2328 20.2536V10.2014H63.095V29.7336H59.5638L59.402 27.151ZM71.4742 29.8651C70.1647 29.7646 69.0318 29.6408 68.0902 29.4862V26.0375C70.2303 26.2862 72.3815 26.4153 74.5346 26.4241C75.3781 26.4553 76.2222 26.3853 77.0506 26.2154C77.261 26.1849 77.4627 26.107 77.6417 25.9869C77.8208 25.8667 77.973 25.7073 78.0878 25.5194C78.2647 25.08 78.3452 24.6042 78.3233 24.1276C78.3509 23.6673 78.296 23.2057 78.1614 22.7667C78.1124 22.6392 78.0387 22.5239 77.945 22.4281C77.8513 22.3322 77.7396 22.2579 77.617 22.2099C77.1587 22.0693 76.6879 21.9786 76.2119 21.9393L71.6949 21.3671C70.7459 21.2918 69.8277 20.979 69.0171 20.4547C68.4262 20.0149 67.9955 19.3768 67.7959 18.6453C67.5538 17.6846 67.4423 16.6927 67.4649 15.6992C67.3768 14.3827 67.6857 13.0705 68.3477 11.949C68.9429 11.1038 69.807 10.5111 70.7827 10.2788C72.1198 9.98274 73.4847 9.84784 74.8509 9.87668C75.8441 9.87668 76.9181 9.93854 78.0731 10.0545C79.0419 10.133 80.005 10.2751 80.9569 10.4798V13.8821C79.0409 13.605 77.1087 13.4707 75.1746 13.48C74.3831 13.4657 73.5915 13.5096 72.8058 13.6115C72.3517 13.6663 71.9289 13.8817 71.6066 14.2223C71.3069 14.6473 71.1633 15.1718 71.202 15.6992C71.1846 16.1199 71.2344 16.5407 71.3492 16.9441C71.3918 17.0729 71.4616 17.1898 71.5534 17.2863C71.6451 17.3827 71.7564 17.456 71.8788 17.5009C72.2995 17.6414 72.7338 17.7322 73.1736 17.7715L78.0878 18.421C78.8848 18.4854 79.6632 18.7057 80.3831 19.0706C80.9589 19.4335 81.3882 20.0057 81.5896 20.6789C81.8977 21.7721 82.0319 22.9112 81.9869 24.0503C82.0633 25.3646 81.7935 26.6756 81.2071 27.8392C80.6916 28.6993 79.8842 29.3213 78.9486 29.579C77.6664 29.9107 76.3474 30.059 75.0275 30.0197C73.924 30.0197 72.7322 29.9733 71.4742 29.8651ZM88.8947 29.7336V13.7893H85.2164V10.186H88.8947V4.51808H92.8085V10.186H97.1415V13.7893H92.8085V29.7336H88.8947ZM116.181 21.4058H104.042C103.993 22.5193 104.099 23.6344 104.358 24.7153C104.476 25.0534 104.672 25.3553 104.929 25.593C105.186 25.8308 105.496 25.9969 105.83 26.0762C107.099 26.3899 108.404 26.5199 109.707 26.4628C111.629 26.4382 113.55 26.3092 115.46 26.0762V29.4475C114.449 29.6565 113.427 29.796 112.399 29.8651C111.163 29.9733 109.964 30.0197 108.794 30.0197C106.2 30.0197 104.295 29.7079 103.078 29.0841C102.501 28.8014 101.99 28.389 101.58 27.8759C101.171 27.3629 100.874 26.7617 100.709 26.1148C100.282 24.1059 100.099 22.0481 100.165 19.9907C100.103 17.9821 100.286 15.9733 100.709 14.0135C100.873 13.3563 101.165 12.7419 101.566 12.2095C101.968 11.6771 102.47 11.2381 103.042 10.9206C104.233 10.2324 106.065 9.89214 108.544 9.88441C111.023 9.87668 112.635 10.2324 113.694 10.9206C114.217 11.2423 114.67 11.6765 115.022 12.1949C115.375 12.7132 115.619 13.304 115.739 13.9285C116.07 15.9322 116.21 17.9655 116.158 19.9985L116.181 21.4058ZM105.558 13.8434C105.272 13.9662 105.016 14.1561 104.811 14.3988C104.605 14.6414 104.456 14.9302 104.373 15.243C104.138 16.297 104.027 17.3773 104.042 18.4597H112.495V18.3824C112.541 17.2967 112.419 16.2104 112.134 15.1657C112.043 14.86 111.89 14.5787 111.686 14.3411C111.481 14.1035 111.23 13.9153 110.95 13.7893C110.133 13.5159 109.276 13.398 108.419 13.4413C107.45 13.3846 106.479 13.521 105.558 13.8434ZM120.874 10.186H124.442L124.589 13.6733H124.876C125.027 13.0548 125.294 12.4739 125.66 11.9642C126.026 11.4546 126.485 11.0263 127.009 10.704C128.251 10.096 129.614 9.8122 130.982 9.87668V14.0909C129.674 14.0239 128.369 14.2891 127.179 14.8641C126.295 15.3535 125.627 16.1856 125.317 17.1838C124.914 18.6183 124.735 20.1121 124.788 21.6068V29.7336H120.903L120.874 10.186ZM137.846 29.8651C136.536 29.7646 135.403 29.6408 134.462 29.4862V26.0375C136.602 26.2862 138.753 26.4153 140.906 26.4241C141.75 26.4553 142.594 26.3853 143.422 26.2154C143.633 26.1849 143.834 26.107 144.013 25.9869C144.192 25.8667 144.345 25.7073 144.459 25.5194C144.636 25.08 144.717 24.6042 144.695 24.1276C144.722 23.6673 144.668 23.2057 144.533 22.7667C144.484 22.6392 144.41 22.5239 144.317 22.4281C144.223 22.3322 144.111 22.2579 143.989 22.2099C143.53 22.0693 143.059 21.9786 142.583 21.9393L138.066 21.3671C137.148 21.2756 136.262 20.9634 135.477 20.4547C134.877 20.014 134.441 19.3695 134.241 18.6298C133.999 17.6692 133.887 16.6773 133.91 15.6838C133.804 14.3777 134.095 13.0699 134.741 11.949C135.337 11.1038 136.201 10.5111 137.176 10.2788C138.513 9.98274 139.878 9.84784 141.245 9.87668C142.238 9.87668 143.312 9.93854 144.467 10.0545C145.428 10.1391 146.384 10.2863 147.328 10.4953V13.8976C145.408 13.6205 143.47 13.4861 141.531 13.4955C140.74 13.4812 139.948 13.5251 139.163 13.6269C138.709 13.6818 138.286 13.8972 137.964 14.2378C137.664 14.6628 137.52 15.1872 137.559 15.7147C137.541 16.1354 137.591 16.5562 137.706 16.9596C137.749 17.0884 137.818 17.2053 137.91 17.3017C138.002 17.3981 138.113 17.4715 138.236 17.5163C138.656 17.6569 139.091 17.7476 139.53 17.787L144.445 18.4365C145.242 18.5008 146.02 18.7211 146.74 19.086C147.326 19.4386 147.769 20.0055 147.983 20.6789C148.291 21.7721 148.426 22.9112 148.38 24.0503C148.457 25.3646 148.187 26.6756 147.601 27.8392C147.085 28.6993 146.278 29.3213 145.342 29.579C144.06 29.9107 142.741 30.059 141.421 30.0197C140.347 30.0197 139.155 29.9733 137.846 29.8651ZM170.929 29.8651C170.007 29.9669 169.082 30.0185 168.155 30.0197C165.823 30.0197 164.116 29.664 163.005 28.9527C162.474 28.6121 162.014 28.1629 161.651 27.6315C161.288 27.1002 161.031 26.4976 160.894 25.8597C160.546 23.9 160.41 21.9052 160.49 19.9134C160.437 17.9762 160.622 16.04 161.041 14.1527C161.356 12.832 162.147 11.6921 163.248 10.9747C164.337 10.2375 165.963 9.87152 168.126 9.87668C169.001 9.87668 169.928 9.9308 170.899 10.0313C171.71 10.107 172.515 10.2492 173.305 10.4566V13.8589C171.922 13.5937 170.517 13.4669 169.111 13.48C168.051 13.4107 166.988 13.5876 166 13.9981C165.655 14.1704 165.353 14.4241 165.117 14.7393C164.881 15.0544 164.717 15.4226 164.639 15.8152C164.389 17.1777 164.285 18.5653 164.33 19.9521C164.285 21.3655 164.396 22.7797 164.661 24.1663C164.733 24.5471 164.887 24.9055 165.111 25.2138C165.336 25.5222 165.625 25.7722 165.955 25.9447C166.964 26.3232 168.035 26.4861 169.104 26.4241C170.53 26.4088 171.953 26.2925 173.364 26.0762V29.4862C172.56 29.6627 171.747 29.7892 170.929 29.8651ZM177.939 28.7207C177.005 27.8546 176.542 26.4009 176.534 24.2745C176.484 23.0573 176.659 21.8414 177.049 20.6944C177.21 20.2768 177.447 19.8966 177.747 19.5755C178.048 19.2544 178.406 18.9988 178.8 18.8231C179.917 18.3758 181.108 18.1732 182.302 18.2277C183.685 18.2277 185.784 18.2793 188.599 18.3824V17.5395C188.657 16.5963 188.527 15.6508 188.217 14.7636C188.083 14.4819 187.885 14.2389 187.642 14.0556C187.398 13.8723 187.116 13.7544 186.819 13.712C185.655 13.5278 184.478 13.4553 183.302 13.4955C182.501 13.4955 181.522 13.4955 180.36 13.6115C179.197 13.7274 178.337 13.7738 177.778 13.8744V10.4798C180.052 10.0702 182.356 9.87612 184.663 9.89987C186.388 9.79947 188.113 10.0624 189.739 10.6731C190.246 10.8873 190.704 11.2105 191.084 11.622C191.464 12.0336 191.758 12.5243 191.946 13.0624C192.366 14.5677 192.55 16.1346 192.491 17.7019V29.7336H188.96L188.813 27.2438H188.592C188.345 27.7727 187.999 28.2434 187.574 28.6275C187.149 29.0116 186.654 29.3011 186.12 29.4785C184.905 29.8681 183.639 30.0559 182.368 30.0352C180.357 30.03 178.881 29.5919 177.939 28.7207ZM186.517 26.2154C187.103 26.0323 187.607 25.6345 187.937 25.0942C188.434 24.0535 188.66 22.8929 188.592 21.7305V21.1506H183.295C182.664 21.1302 182.034 21.1952 181.419 21.3439C181.234 21.3999 181.063 21.4983 180.918 21.632C180.773 21.7656 180.657 21.9313 180.58 22.1172C180.402 22.6771 180.325 23.2672 180.352 23.857C180.32 24.4509 180.413 25.0449 180.625 25.5968C180.732 25.7999 180.882 25.9749 181.063 26.1088C181.244 26.2427 181.451 26.332 181.669 26.37C182.472 26.523 183.288 26.5878 184.104 26.5633C184.921 26.5796 185.735 26.4622 186.517 26.2154ZM209.33 29.7336V10.186H213.192V29.7336H209.33ZM228.384 29.8651C227.465 29.9669 226.542 30.0185 225.618 30.0197C223.286 30.0197 221.564 29.664 220.468 28.9527C219.936 28.6122 219.475 28.1631 219.111 27.6318C218.747 27.1005 218.488 26.4979 218.349 25.8597C217.983 23.9073 217.825 21.9181 217.879 19.9289C217.828 17.9922 218.011 16.0565 218.423 14.1682C218.74 12.8486 219.531 11.7094 220.63 10.9902C221.726 10.2169 223.359 9.89214 225.515 9.89214C226.39 9.89214 227.31 9.94627 228.281 10.0468C229.092 10.1225 229.896 10.2647 230.687 10.4721V13.8744C229.306 13.6092 227.904 13.4823 226.501 13.4955C225.437 13.4268 224.373 13.6036 223.381 14.0135C223.055 14.1957 222.77 14.4517 222.549 14.7633C222.327 15.0748 222.175 15.4341 222.101 15.8152C221.851 17.1777 221.748 18.5653 221.792 19.9521C221.748 21.3655 221.859 22.7797 222.123 24.1663C222.194 24.5466 222.347 24.9047 222.57 25.2131C222.793 25.5215 223.081 25.7718 223.411 25.9447C224.422 26.323 225.495 26.4859 226.567 26.4241C227.992 26.4088 229.416 26.2925 230.826 26.0762V29.4862C230.02 29.6627 229.204 29.7892 228.384 29.8651ZM236.998 29.1614C236.447 28.8999 235.961 28.5075 235.578 28.0152C235.195 27.5228 234.926 26.9438 234.792 26.3236C234.408 24.2119 234.248 22.0621 234.313 19.9134C234.248 17.7749 234.408 15.6354 234.792 13.5341C234.925 12.9165 235.194 12.3404 235.577 11.8516C235.961 11.3629 236.447 10.9752 236.998 10.7195C238.153 10.1628 240.044 9.87668 242.67 9.87668C245.297 9.87668 247.18 10.1628 248.335 10.7195C248.886 10.9752 249.373 11.3629 249.756 11.8516C250.139 12.3404 250.409 12.9165 250.542 13.5341C250.911 15.6372 251.056 17.7767 250.976 19.9134C251.042 22.0621 250.881 24.2119 250.498 26.3236C250.364 26.9438 250.095 27.5228 249.712 28.0152C249.329 28.5075 248.842 28.8999 248.291 29.1614C247.136 29.7336 245.253 30.0197 242.626 30.0197C240 30.0197 238.131 29.7336 236.998 29.1614ZM245.826 25.9834C246.131 25.8294 246.392 25.5955 246.586 25.3043C246.779 25.0131 246.898 24.6744 246.93 24.3209C247.105 22.849 247.174 21.3653 247.136 19.8825C247.174 18.4048 247.105 16.9262 246.93 15.4595C246.886 15.1243 246.762 14.8064 246.569 14.5357C246.376 14.2651 246.12 14.0508 245.826 13.913C243.748 13.3563 241.571 13.3563 239.492 13.913C239.214 14.0629 238.976 14.2824 238.797 14.552C238.619 14.8217 238.507 15.1334 238.47 15.4595C238.295 16.9262 238.226 18.4048 238.264 19.8825C238.226 21.355 238.295 22.8285 238.47 24.29C238.499 24.6394 238.613 24.975 238.801 25.2647C238.989 25.5544 239.245 25.7886 239.544 25.9447C241.618 26.5325 243.804 26.5325 245.878 25.9447L245.826 25.9834ZM209.257 0.427612H213.303V4.56448H209.257V0.427612Z" fill="#DDE1E6"/>
<path d="M8.97954 19.9365H-0.304527V32.525C-0.304527 34.3584 -0.997441 36.1167 -2.23084 37.4131C-3.46423 38.7095 -5.13707 39.4378 -6.88136 39.4378C-8.62564 39.4378 -10.2985 38.7095 -11.5319 37.4131C-12.7653 36.1167 -13.4582 34.3584 -13.4582 32.525H-22.7717C-22.7867 34.7163 -22.3909 36.8892 -21.6069 38.9198C-20.8229 40.9503 -19.6661 42.7987 -18.2025 44.3593C-16.7389 45.9199 -14.9971 47.1623 -13.0768 48.0154C-11.1564 48.8685 -9.09491 49.3157 -7.0101 49.3315C-4.92528 49.3472 -2.85793 48.9312 -0.926085 48.1071C1.00576 47.2831 2.76428 46.0672 4.24905 44.5288C5.73383 42.9904 6.91579 41.1597 7.72745 39.1412C8.53911 37.1228 8.96457 34.956 8.97954 32.7647V19.9365Z" fill="#DDE1E6"/>
<path d="M8.97961 10.1782H18.2637V19.9366H8.97961V10.1782Z" fill="#DDE1E6"/>
<path d="M-0.304504 0.427612H8.97957V10.186H-0.304504V0.427612ZM25.863 47.758C27.6286 47.758 27.6433 47.6265 27.6433 45.7862V40.157H29.4604V45.2759C29.4604 49.0725 29.3059 49.1885 25.8925 49.2039L25.863 47.758ZM31.6674 47.325C31.6674 45.7785 32.0868 45.2372 33.6684 45.2372L35.6179 45.2836V45.0207C35.6179 43.8531 35.3752 43.799 33.9259 43.799C33.3742 43.799 32.4546 43.8685 32.05 43.9227V42.5927C32.8535 42.464 33.6649 42.3968 34.4777 42.3916C36.9936 42.3916 37.2805 43.219 37.2805 45.1135V49.2039H35.6989L35.6547 48.3688H35.5664C35.3432 48.7019 35.037 48.964 34.6815 49.1263C34.3259 49.2886 33.9347 49.3449 33.5507 49.289C32.3001 49.3045 31.6674 48.7787 31.6674 47.325ZM35.4193 47.5183C35.5668 47.1987 35.6327 46.8443 35.6106 46.4899V46.2965H34.1393C33.4036 46.2965 33.2859 46.3971 33.2859 47.1394C33.2859 47.8817 33.4404 47.9126 34.3747 47.9126C34.5697 47.9605 34.7738 47.9488 34.9627 47.8789C35.1517 47.809 35.3177 47.6839 35.4414 47.5183H35.4193ZM40.0319 51.7557V50.4643H41.8269C43.541 50.4643 43.6514 50.2169 43.6514 48.7168V48.2915H43.5778C43.3783 48.6006 43.0999 48.8444 42.7746 48.9949C42.4493 49.1453 42.0903 49.1963 41.7387 49.1421C40.1423 49.1421 39.5317 48.3688 39.5317 45.763C39.5317 43.1572 40.1423 42.3143 41.7387 42.3143C42.1054 42.2644 42.4781 42.3277 42.8112 42.4966C43.1443 42.6655 43.4235 42.9326 43.6146 43.2654H43.7176L43.7691 42.4226H45.3213V48.3688C45.3213 50.7968 45.0786 51.8639 42.2316 51.8639C41.4968 51.8898 40.7612 51.8536 40.0319 51.7557ZM43.438 47.294C43.6212 46.8298 43.6895 46.3244 43.6367 45.8249C43.6788 45.3269 43.616 44.8253 43.4528 44.3557C43.2762 44.0387 42.9893 43.8917 42.4375 43.8917C41.3267 43.8917 41.2163 44.0773 41.2163 45.8249C41.2163 47.5724 41.3267 47.727 42.4375 47.727C43.004 47.727 43.2909 47.5956 43.438 47.294ZM53.2444 46.3739H49.2719C49.2719 47.7038 49.3601 47.9204 51.0595 47.9204C51.5818 47.9204 52.3984 47.8662 52.9943 47.8044V49.0648C52.2275 49.2116 51.4491 49.2815 50.6696 49.2735C47.8447 49.2735 47.6093 48.3302 47.6093 45.8326C47.6093 43.335 47.8814 42.3607 50.5519 42.3607C53.2224 42.3607 53.2591 43.4123 53.2591 45.8326L53.2444 46.3739ZM49.2719 45.2759H51.6701C51.6701 43.8995 51.42 43.7294 50.5078 43.7294C49.4043 43.7294 49.3233 44.0077 49.2719 45.2759ZM55.5397 42.4999H57.0993L57.1508 43.3427H57.2464C57.4447 43.0041 57.7327 42.7338 58.0751 42.5648C58.4175 42.3959 58.7994 42.3357 59.1739 42.3916C60.91 42.3916 61.1749 43.3041 61.1749 45.013V49.2039H59.5123V45.6547C59.5123 44.0232 59.4167 43.9072 58.4161 43.9072C57.4156 43.9072 57.2023 44.4176 57.2023 45.7321V49.2039H55.5397V42.4999ZM65.3902 48.3688H65.302L65.2505 49.1962H63.6909V39.4379H65.3535V43.2345H65.4417C65.651 42.9269 65.9366 42.6856 66.2674 42.537C66.5982 42.3884 66.9615 42.3381 67.3177 42.3916C68.8699 42.3916 69.4585 43.1649 69.4585 45.8481C69.4585 48.5312 68.8552 49.3045 67.2515 49.3045C66.8889 49.348 66.5221 49.2834 66.1929 49.1179C65.8637 48.9524 65.5855 48.6928 65.3902 48.3688ZM67.7959 45.8403C67.7959 44.0851 67.6708 43.8995 66.5673 43.8995C66.045 43.8995 65.7434 44.0155 65.5815 44.3093C65.3749 44.794 65.2962 45.3281 65.3535 45.8558C65.3021 46.3833 65.3806 46.9159 65.5815 47.4023C65.7434 47.6884 66.045 47.8121 66.5673 47.8121C67.6708 47.8121 67.7738 47.6343 67.7738 45.8403H67.7959ZM77.1608 46.3739H73.1809C73.1809 47.7038 73.2692 47.9204 74.9686 47.9204C75.4983 47.9204 76.3075 47.8662 76.9107 47.8044V49.0648C76.1439 49.2116 75.3655 49.2815 74.586 49.2735C71.7611 49.2735 71.5183 48.3302 71.5183 45.8326C71.5183 43.335 71.7979 42.3607 74.461 42.3607C77.1241 42.3607 77.1756 43.4123 77.1756 45.8326L77.1608 46.3739ZM73.1809 45.2759H75.5865C75.5865 43.8995 75.3364 43.7294 74.4242 43.7294C73.3354 43.7294 73.1956 44.0077 73.1809 45.2759ZM79.4855 42.4999H81.0746V43.652H81.1776C81.516 42.6468 82.1928 42.3839 83.2154 42.3839V44.0541C81.5748 44.0541 81.1261 44.6882 81.1261 46.513V49.1962H79.4635L79.4855 42.4999ZM85.312 51.7557V50.4643H87.1144C88.8285 50.4643 88.9388 50.2169 88.9388 48.7168V48.2915H88.8653C88.6667 48.6021 88.3887 48.8474 88.0633 48.9992C87.738 49.151 87.3784 49.2033 87.0261 49.1498C85.4297 49.1498 84.8191 48.3766 84.8191 45.7707C84.8191 43.1649 85.4297 42.3221 87.0261 42.3221C87.3929 42.2721 87.7655 42.3355 88.0986 42.5043C88.4318 42.6732 88.7109 42.9404 88.902 43.2731H89.005L89.0565 42.4303H90.6014V48.3688C90.6014 50.7968 90.366 51.8639 87.5116 51.8639C86.7769 51.8821 86.0419 51.8459 85.312 51.7557ZM88.7402 47.294C88.9233 46.8298 88.9917 46.3244 88.9388 45.8249C88.981 45.3269 88.9182 44.8253 88.7549 44.3557C88.5784 44.0387 88.2914 43.8917 87.7397 43.8917C86.6288 43.8917 86.5111 44.0773 86.5111 45.8249C86.5111 47.5724 86.6288 47.727 87.7397 47.727C88.3135 47.727 88.5783 47.5956 88.7402 47.294ZM96.8472 44.6805C96.8472 41.0539 97.5093 40.041 100.636 40.041C101.588 40.0546 102.538 40.1503 103.476 40.3271V41.7885C102.761 41.6828 102.041 41.6157 101.32 41.5875C98.9733 41.5875 98.6349 41.6416 98.6349 44.6805C98.6349 47.3636 98.8703 47.7734 100.695 47.7734C101.068 47.7823 101.442 47.7642 101.813 47.7193V45.5233H100.393V44.0309H103.512V48.9797C102.564 49.1688 101.601 49.2697 100.636 49.2813C97.4799 49.3045 96.8472 48.4539 96.8472 44.6805ZM106.05 42.4999H107.617L107.669 43.6598H107.764C108.103 42.6546 108.78 42.3916 109.802 42.3916V44.0619C108.169 44.0619 107.713 44.6959 107.713 46.5208V49.2039H106.05V42.4999ZM111.465 45.8403C111.465 43.134 111.627 42.3916 114.407 42.3916C117.188 42.3916 117.35 43.1649 117.35 45.8403C117.35 48.5158 117.181 49.3045 114.407 49.3045C111.634 49.3045 111.465 48.5467 111.465 45.8403ZM115.643 45.8403C115.643 44 115.643 43.799 114.393 43.799C113.142 43.799 113.142 44 113.142 45.8403C113.142 47.6806 113.142 47.9049 114.393 47.9049C115.643 47.9049 115.643 47.6806 115.643 45.8403ZM119.594 46.6909V42.4999H121.257V46.0491C121.257 47.6806 121.367 47.7966 122.367 47.7966C123.368 47.7966 123.567 47.2863 123.567 45.9718V42.4999H125.236V49.2039H123.706L123.625 48.3688H123.522C123.325 48.7061 123.038 48.9752 122.697 49.1428C122.356 49.3105 121.975 49.3694 121.602 49.3122C119.866 49.3045 119.594 48.3688 119.594 46.6909ZM127.745 42.4999H129.312L129.364 43.3427H129.452C129.645 43.01 129.925 42.7431 130.26 42.5744C130.594 42.4056 130.967 42.3421 131.335 42.3916C132.909 42.3916 133.542 43.1649 133.542 45.8403C133.542 48.5158 132.954 49.3045 131.401 49.3045C131.043 49.3655 130.676 49.3195 130.342 49.1719C130.008 49.0242 129.72 48.7808 129.511 48.4694H129.408V51.8175H127.745V42.4999ZM131.85 45.8481C131.85 44.0773 131.725 43.8917 130.622 43.8917C130.033 43.8917 129.739 44.0541 129.584 44.4021C129.431 44.866 129.37 45.3584 129.408 45.8481C129.377 46.3339 129.431 46.8215 129.57 47.2863C129.724 47.6497 130.033 47.7966 130.622 47.7966C131.725 47.7966 131.85 47.6265 131.85 45.8481Z" fill="#DDE1E6"/>
<path d="M287.463 35.9196C287.457 36.5747 287.267 37.2133 286.917 37.7549C286.566 38.2965 286.071 38.7168 285.493 38.9629C284.915 39.209 284.281 39.2699 283.671 39.1378C283.061 39.0057 282.501 38.6866 282.063 38.2207C281.625 37.7548 281.328 37.163 281.209 36.5198C281.09 35.8767 281.156 35.2111 281.397 34.6069C281.637 34.0027 282.043 33.4869 282.562 33.1247C283.082 32.7625 283.691 32.57 284.315 32.5715C284.731 32.5725 285.143 32.6601 285.527 32.8292C285.911 32.9982 286.259 33.2455 286.552 33.5567C286.845 33.8679 287.076 34.237 287.232 34.6425C287.389 35.048 287.467 35.4821 287.463 35.9196ZM278.106 12.5676L275.84 10.186L278.775 7.10078L286.647 15.3745L289.31 12.5676L278.775 1.49475L270.499 10.186L275.435 15.3668L278.106 12.5676Z" fill="#DDE1E6"/>
<path d="M287.559 9.48246L289.81 7.11633L292.745 10.2016L284.896 18.4598L287.566 21.2667L298.079 10.2016L289.81 1.50256L284.896 6.67558L287.559 9.48246ZM288.787 23.7952L281.975 16.5886L279.312 19.3877L289.751 30.3678C290.77 31.4861 291.454 32.8944 291.719 34.4178C291.983 35.9413 291.815 37.5127 291.237 38.937C290.658 40.3612 289.695 41.5754 288.465 42.4288C287.236 43.2822 285.795 43.7372 284.322 43.7372C282.849 43.7372 281.408 43.2822 280.178 42.4288C278.949 41.5754 277.985 40.3612 277.407 38.937C276.829 37.5127 276.661 35.9413 276.925 34.4178C277.189 32.8944 277.874 31.4861 278.893 30.3678L283.733 25.2721L281.07 22.4653L276.193 27.646C274.65 29.3223 273.611 31.4389 273.205 33.7319C272.8 36.0248 273.045 38.3926 273.911 40.5398C274.777 42.6871 276.226 44.5188 278.076 45.8065C279.926 47.0941 282.096 47.7808 284.315 47.7808C286.533 47.7808 288.703 47.0941 290.553 45.8065C292.403 44.5188 293.852 42.6871 294.718 40.5398C295.584 38.3926 295.83 36.0248 295.424 33.7319C295.018 31.4389 293.979 29.3223 292.436 27.646L288.787 23.7952Z" fill="#DDE1E6"/>
<path d="M283.704 13.5342L281.034 10.7273L272.963 19.2098L270.499 16.6194V24.7462H278.223L275.626 22.0167L283.704 13.5342ZM295.636 19.2098L293.165 16.6194L290.494 19.4263L292.966 22.0167L290.369 24.7462H298.094V16.6194L295.636 19.2098Z" fill="#DDE1E6"/>
</g>
<defs>
<clipPath id="clip0_4_418">
<rect width="320.866" height="51.4444" fill="white" transform="translate(-22.7721 0.427612)"/>
</clipPath>
</defs>
</svg>
