<svg width="114" height="112" viewBox="0 0 114 112" fill="none" xmlns="http://www.w3.org/2000/svg">
<g clip-path="url(#clip0_422_15121)">
<path d="M37.8217 3.50391H76.1777C81.993 3.50391 86.6947 8.13116 86.6947 13.8543V50.1418C86.6947 55.865 81.993 60.4922 76.1777 60.4922H37.8217C32.0064 60.4922 27.3047 55.865 27.3047 50.1418V13.8543C27.3047 8.13116 32.0064 3.50391 37.8217 3.50391Z" fill="#470137"/>
<path d="M58.534 18.484L51.1102 30.5392L59.0289 43.325C59.0784 43.4225 59.1031 43.5199 59.0784 43.6173C59.0536 43.7147 58.9546 43.6416 58.8062 43.666H53.1394C52.7434 43.666 52.4712 43.6416 52.298 43.3981C51.7784 42.3752 51.2339 41.3767 50.7143 40.3539C50.1946 39.3553 49.6255 38.3325 49.0316 37.2853C48.4377 36.238 47.8438 35.1908 47.2499 34.1192H47.2004C46.6807 35.1665 46.1116 36.2137 45.5424 37.2609C44.9732 38.3081 44.4041 39.3553 43.8597 40.3782C43.2905 41.4011 42.7214 42.4483 42.1522 43.4468C42.0532 43.6904 41.8553 43.7147 41.5831 43.7147H36.139C36.04 43.7147 35.9658 43.7634 35.9658 43.6416C35.941 43.5442 35.9658 43.4468 36.0153 43.3738L43.7112 30.9532L36.2132 18.4596C36.139 18.3622 36.1142 18.2648 36.1637 18.2161C36.2132 18.143 36.3122 18.1187 36.4112 18.1187H42.0285C42.1522 18.1187 42.276 18.143 42.3749 18.1674C42.4739 18.2161 42.5482 18.2892 42.6224 18.3866C43.0926 19.4338 43.637 20.481 44.2061 21.5282C44.8 22.5755 45.3692 23.5983 45.9878 24.6212C46.5817 25.6441 47.1261 26.6669 47.6458 27.7141H47.6953C48.215 26.6426 48.7594 25.5953 49.3038 24.5725C49.8482 23.5496 50.4173 22.5267 50.9865 21.5039C51.5556 20.481 52.1 19.4338 52.6445 18.4353C52.6692 18.3379 52.7187 18.2404 52.7929 18.1917C52.8919 18.143 52.9909 18.1187 53.1146 18.143H58.336C58.4597 18.1187 58.5835 18.1917 58.6082 18.3135C58.6329 18.3379 58.5835 18.4353 58.534 18.484ZM69.9665 44.1774C68.1353 44.2018 66.3042 43.8365 64.6462 43.0815C63.0872 42.3752 61.8004 41.2062 60.9096 39.7694C59.994 38.2838 59.5485 36.4329 59.5485 34.2167C59.5238 32.4145 59.994 30.6366 60.9096 29.078C61.8499 27.495 63.2109 26.1798 64.8442 25.3031C66.5764 24.3533 68.655 23.8906 71.1048 23.8906C71.2286 23.8906 71.4018 23.8906 71.6245 23.9149C71.8472 23.9393 72.0947 23.9393 72.3916 23.9636V16.2678C72.3916 16.0973 72.4659 15.9999 72.6391 15.9999H77.6625C77.7862 15.9755 77.8852 16.0729 77.91 16.1704V39.4041C77.91 39.8424 77.9347 40.3295 77.9594 40.8653C78.0089 41.3767 78.0337 41.8638 78.0584 42.2778C78.0584 42.4483 77.9842 42.5944 77.811 42.6675C76.5242 43.2033 75.1632 43.5929 73.7774 43.8365C72.5154 44.0557 71.2533 44.1774 69.9665 44.1774ZM72.3916 39.3066V28.5909C72.1689 28.5422 71.9462 28.4935 71.7235 28.4691C71.4513 28.4448 71.1791 28.4204 70.9069 28.4204C69.9418 28.4204 68.9767 28.6152 68.1106 29.0536C67.2692 29.4676 66.5516 30.0765 66.0072 30.8558C65.4628 31.6351 65.1906 32.6824 65.1906 33.9488C65.1658 34.8012 65.3143 35.6535 65.6113 36.4572C65.8587 37.1148 66.2299 37.6993 66.7248 38.1864C67.195 38.6247 67.7642 38.9657 68.4076 39.1605C69.0757 39.3797 69.7686 39.4771 70.4615 39.4771C70.8326 39.4771 71.1791 39.4528 71.5008 39.4284C71.8225 39.4528 72.0947 39.4041 72.3916 39.3066Z" fill="#FF61F6"/>
</g>
<path d="M44.6359 104.914L49.6919 97.7861L45.4199 91.7141H46.8919L50.4439 96.7541L53.9959 91.7141H55.4599L51.1959 97.7861L56.2439 104.914H54.7239L50.4439 98.8501L46.1559 104.914H44.6359ZM59.2067 104.914V91.7141H62.1827C63.116 91.7141 63.9854 91.8821 64.7907 92.2181C65.6014 92.5541 66.308 93.0234 66.9107 93.6261C67.5134 94.2234 67.9854 94.9221 68.3267 95.7221C68.668 96.5221 68.8387 97.3887 68.8387 98.3221C68.8387 99.2501 68.6707 100.114 68.3347 100.914C67.9987 101.714 67.5267 102.415 66.9187 103.018C66.316 103.615 65.6094 104.082 64.7987 104.418C63.9934 104.749 63.1214 104.914 62.1827 104.914H59.2067ZM60.4227 103.826H62.0707C62.8494 103.826 63.5694 103.687 64.2307 103.41C64.8974 103.127 65.4787 102.738 65.9747 102.242C66.476 101.741 66.8654 101.157 67.1427 100.49C67.42 99.8181 67.5587 99.0927 67.5587 98.3141C67.5587 97.5354 67.42 96.8127 67.1427 96.1461C66.8654 95.4794 66.476 94.8954 65.9747 94.3941C65.4787 93.8927 64.8974 93.5034 64.2307 93.2261C63.564 92.9434 62.844 92.8021 62.0707 92.8021H60.4227V103.826Z" fill="#343A3F"/>
<defs>
<clipPath id="clip0_422_15121">
<rect width="59.39" height="57" fill="white" transform="translate(27.3047 3.5)"/>
</clipPath>
</defs>
</svg>
