<svg width="114" height="112" viewBox="0 0 114 112" fill="none" xmlns="http://www.w3.org/2000/svg">
<g clip-path="url(#clip0_422_15128)">
<path d="M37.8217 3.50391H76.1777C81.993 3.50391 86.6947 8.13116 86.6947 13.8543V50.1418C86.6947 55.865 81.993 60.4922 76.1777 60.4922H37.8217C32.0064 60.4922 27.3047 55.865 27.3047 50.1418V13.8543C27.3047 8.13116 32.0064 3.50391 37.8217 3.50391Z" fill="#001E36"/>
<path d="M40.667 43.4704V18.4101C40.667 18.2396 40.7412 18.1422 40.9145 18.1422C41.3351 18.1422 41.7311 18.1422 42.3002 18.1179C42.8941 18.0935 43.5128 18.0935 44.1809 18.0692C44.849 18.0448 45.5667 18.0448 46.3338 18.0204C47.1009 17.9961 47.8433 17.9961 48.5857 17.9961C50.6148 17.9961 52.2975 18.2396 53.6833 18.7511C54.9206 19.1651 56.0589 19.847 56.9992 20.7481C57.7911 21.5274 58.4098 22.4772 58.8057 23.5244C59.1769 24.5473 59.3748 25.5945 59.3748 26.6905C59.3748 28.7849 58.8799 30.514 57.8901 31.8779C56.9003 33.2417 55.5145 34.2646 53.906 34.849C52.2233 35.4579 50.3674 35.6771 48.3382 35.6771C47.7443 35.6771 47.3484 35.6771 47.1009 35.6527C46.8535 35.6284 46.507 35.6284 46.0368 35.6284V43.446C46.0616 43.6165 45.9379 43.7626 45.7646 43.787H40.9639C40.766 43.787 40.667 43.6895 40.667 43.4704ZM46.0616 22.8425V31.0255C46.408 31.0498 46.7297 31.0742 47.0267 31.0742H48.3382C49.3033 31.0742 50.2684 30.9281 51.184 30.6358C51.9758 30.4166 52.6687 29.9539 53.2131 29.345C53.7328 28.7362 53.9803 27.9082 53.9803 26.8366C54.005 26.0816 53.807 25.3266 53.4111 24.6691C52.9904 24.0359 52.3965 23.5488 51.6789 23.2809C50.7633 22.9156 49.7735 22.7695 48.7589 22.7938C48.1155 22.7938 47.5463 22.7938 47.0762 22.8182C46.5812 22.7938 46.2348 22.8182 46.0616 22.8425ZM74.8162 29.5399C74.0739 29.1502 73.282 28.8823 72.4406 28.7118C71.525 28.517 70.6094 28.3952 69.6691 28.3952C69.1742 28.3709 68.6545 28.444 68.1844 28.5657C67.8627 28.6388 67.5905 28.8093 67.4172 29.0528C67.2935 29.2476 67.2193 29.4912 67.2193 29.7104C67.2193 29.9295 67.3183 30.1487 67.4667 30.3436C67.6894 30.6115 67.9864 30.8306 68.3081 31.0011C68.8772 31.2934 69.4711 31.5613 70.065 31.8048C71.4013 32.2432 72.6881 32.852 73.8759 33.5826C74.6925 34.0941 75.3606 34.776 75.8308 35.604C76.2268 36.3833 76.4247 37.2357 76.4 38.1125C76.4247 39.2571 76.0783 40.4018 75.4349 41.3516C74.742 42.3257 73.7769 43.0807 72.6634 43.5191C71.4508 44.0305 69.9661 44.2984 68.1844 44.2984C67.046 44.2984 65.9325 44.201 64.8189 43.9818C63.9528 43.8357 63.0867 43.5678 62.2948 43.2025C62.1216 43.105 61.9979 42.9346 62.0226 42.7397V38.5021C62.0226 38.4291 62.0474 38.3317 62.1216 38.283C62.1959 38.2343 62.2701 38.2586 62.3443 38.3073C63.3094 38.8675 64.324 39.2571 65.4128 39.5007C66.3532 39.7442 67.343 39.866 68.3328 39.866C69.2732 39.866 69.9413 39.7442 70.3867 39.525C70.7827 39.3545 71.0549 38.9405 71.0549 38.5021C71.0549 38.1612 70.8569 37.8446 70.461 37.528C70.065 37.2114 69.2484 36.8461 68.0359 36.3833C66.7738 35.945 65.6108 35.3605 64.522 34.6299C63.7549 34.0941 63.1115 33.3878 62.6413 32.5598C62.2454 31.7804 62.0474 30.9281 62.0721 30.0757C62.0721 29.0284 62.3691 28.0299 62.9135 27.1288C63.5321 26.1547 64.4477 25.3754 65.5118 24.8883C66.6749 24.3038 68.1349 24.0359 69.8918 24.0359C70.9064 24.0359 71.9457 24.1089 72.9603 24.2551C73.7027 24.3525 74.4203 24.5473 75.0884 24.8152C75.1874 24.8396 75.2864 24.937 75.3359 25.0344C75.3606 25.1318 75.3854 25.2292 75.3854 25.3266V29.2963C75.3854 29.3938 75.3359 29.4912 75.2617 29.5399C75.039 29.5886 74.9152 29.5886 74.8162 29.5399Z" fill="#31A8FF"/>
</g>
<path d="M13.8864 104.914V91.7141H17.3104C18.1744 91.7141 18.921 91.8634 19.5504 92.1621C20.1797 92.4607 20.665 92.8874 21.0064 93.4421C21.353 93.9967 21.5264 94.6634 21.5264 95.4421C21.5264 96.2154 21.353 96.8954 21.0064 97.4821C20.665 98.0634 20.1797 98.5167 19.5504 98.8421C18.921 99.1621 18.1744 99.3221 17.3104 99.3221H15.1024V104.914H13.8864ZM15.1024 98.2981H17.0224C17.6837 98.2981 18.257 98.1834 18.7424 97.9541C19.233 97.7247 19.6117 97.3994 19.8784 96.9781C20.145 96.5514 20.2784 96.0501 20.2784 95.4741C20.2784 94.8874 20.145 94.3887 19.8784 93.9781C19.6117 93.5621 19.233 93.2474 18.7424 93.0341C18.257 92.8154 17.6837 92.7061 17.0224 92.7061H15.1024V98.2981ZM24.4075 104.914V91.1461H25.5755V97.8421C25.7995 97.4581 26.1462 97.1327 26.6155 96.8661C27.0848 96.5994 27.6582 96.4661 28.3355 96.4661C28.9702 96.4661 29.5168 96.5967 29.9755 96.8581C30.4342 97.1194 30.7862 97.5007 31.0315 98.0021C31.2768 98.4981 31.3995 99.0981 31.3995 99.8021V104.914H30.2315V100.026C30.2315 99.1781 30.0342 98.5301 29.6395 98.0821C29.2448 97.6341 28.6875 97.4101 27.9675 97.4101C27.4662 97.4101 27.0368 97.5114 26.6795 97.7141C26.3275 97.9167 26.0555 98.1834 25.8635 98.5141C25.6715 98.8394 25.5755 99.1941 25.5755 99.5781V104.914H24.4075ZM38.6008 105.17C37.7474 105.17 36.9768 104.986 36.2888 104.618C35.6061 104.25 35.0648 103.738 34.6648 103.082C34.2648 102.426 34.0648 101.671 34.0648 100.818C34.0648 99.9594 34.2648 99.2047 34.6648 98.5541C35.0648 97.8981 35.6061 97.3861 36.2888 97.0181C36.9714 96.6501 37.7421 96.4661 38.6008 96.4661C39.4541 96.4661 40.2221 96.6501 40.9048 97.0181C41.5928 97.3861 42.1368 97.8981 42.5368 98.5541C42.9368 99.2047 43.1368 99.9594 43.1368 100.818C43.1368 101.671 42.9368 102.426 42.5368 103.082C42.1368 103.738 41.5928 104.25 40.9048 104.618C40.2221 104.986 39.4541 105.17 38.6008 105.17ZM38.6008 104.13C39.2408 104.13 39.8114 103.989 40.3128 103.706C40.8141 103.423 41.2088 103.034 41.4968 102.538C41.7848 102.037 41.9288 101.463 41.9288 100.818C41.9288 100.173 41.7848 99.6021 41.4968 99.1061C41.2088 98.6047 40.8141 98.2127 40.3128 97.9301C39.8114 97.6474 39.2408 97.5061 38.6008 97.5061C37.9608 97.5061 37.3901 97.6474 36.8888 97.9301C36.3874 98.2127 35.9928 98.6047 35.7048 99.1061C35.4168 99.6021 35.2728 100.173 35.2728 100.818C35.2728 101.458 35.4168 102.029 35.7048 102.53C35.9928 103.031 36.3874 103.423 36.8888 103.706C37.3901 103.989 37.9608 104.13 38.6008 104.13ZM47.9163 105.17C47.3029 105.17 46.8256 104.965 46.4843 104.554C46.1483 104.138 45.9803 103.554 45.9803 102.802V97.6021H45.1483V96.7221H45.9803V93.6581H47.1483V96.7221H49.1883V97.6021H47.1483V102.738C47.1483 103.191 47.2363 103.538 47.4123 103.778C47.5883 104.018 47.8389 104.138 48.1643 104.138C48.4789 104.138 48.7563 104.05 48.9963 103.874L49.2923 104.802C49.1109 104.914 48.8976 105.002 48.6523 105.066C48.4069 105.135 48.1616 105.17 47.9163 105.17ZM55.757 105.17C54.9037 105.17 54.133 104.986 53.445 104.618C52.7623 104.25 52.221 103.738 51.821 103.082C51.421 102.426 51.221 101.671 51.221 100.818C51.221 99.9594 51.421 99.2047 51.821 98.5541C52.221 97.8981 52.7623 97.3861 53.445 97.0181C54.1277 96.6501 54.8983 96.4661 55.757 96.4661C56.6103 96.4661 57.3783 96.6501 58.061 97.0181C58.749 97.3861 59.293 97.8981 59.693 98.5541C60.093 99.2047 60.293 99.9594 60.293 100.818C60.293 101.671 60.093 102.426 59.693 103.082C59.293 103.738 58.749 104.25 58.061 104.618C57.3783 104.986 56.6103 105.17 55.757 105.17ZM55.757 104.13C56.397 104.13 56.9677 103.989 57.469 103.706C57.9703 103.423 58.365 103.034 58.653 102.538C58.941 102.037 59.085 101.463 59.085 100.818C59.085 100.173 58.941 99.6021 58.653 99.1061C58.365 98.6047 57.9703 98.2127 57.469 97.9301C56.9677 97.6474 56.397 97.5061 55.757 97.5061C55.117 97.5061 54.5463 97.6474 54.045 97.9301C53.5437 98.2127 53.149 98.6047 52.861 99.1061C52.573 99.6021 52.429 100.173 52.429 100.818C52.429 101.458 52.573 102.029 52.861 102.53C53.149 103.031 53.5437 103.423 54.045 103.706C54.5463 103.989 55.117 104.13 55.757 104.13ZM65.1761 105.17C64.4988 105.17 63.9015 105.007 63.3841 104.682C62.8668 104.351 62.4641 103.885 62.1761 103.282L62.8001 102.61C63.0561 103.133 63.3895 103.541 63.8001 103.834C64.2108 104.122 64.6668 104.266 65.1681 104.266C65.5041 104.266 65.8108 104.197 66.0881 104.058C66.3708 103.919 66.5948 103.722 66.7601 103.466C66.9308 103.205 67.0161 102.895 67.0161 102.538C67.0161 102.213 66.9361 101.957 66.7761 101.77C66.6215 101.583 66.3921 101.423 66.0881 101.29C65.7895 101.151 65.4161 100.997 64.9681 100.826C64.6215 100.687 64.2855 100.53 63.9601 100.354C63.6348 100.178 63.3655 99.9567 63.1521 99.6901C62.9441 99.4181 62.8401 99.0741 62.8401 98.6581C62.8401 98.2367 62.9521 97.8634 63.1761 97.5381C63.4001 97.2074 63.7095 96.9487 64.1041 96.7621C64.4988 96.5701 64.9468 96.4741 65.4481 96.4741C65.9068 96.4741 66.3361 96.5727 66.7361 96.7701C67.1415 96.9674 67.5041 97.2474 67.8241 97.6101L67.2881 98.2901C66.7975 97.6447 66.1868 97.3221 65.4561 97.3221C65.0081 97.3221 64.6428 97.4394 64.3601 97.6741C64.0828 97.9087 63.9441 98.2154 63.9441 98.5941C63.9441 98.8661 64.0321 99.0927 64.2081 99.2741C64.3841 99.4554 64.6135 99.6101 64.8961 99.7381C65.1841 99.8661 65.4935 99.9941 65.8241 100.122C66.3041 100.303 66.7201 100.485 67.0721 100.666C67.4295 100.847 67.7068 101.079 67.9041 101.362C68.1015 101.639 68.2001 102.018 68.2001 102.498C68.2001 103.047 68.0721 103.522 67.8161 103.922C67.5601 104.322 67.2028 104.631 66.7441 104.85C66.2908 105.063 65.7681 105.17 65.1761 105.17ZM70.97 104.914V91.1461H72.138V97.8421C72.362 97.4581 72.7087 97.1327 73.178 96.8661C73.6473 96.5994 74.2207 96.4661 74.898 96.4661C75.5327 96.4661 76.0793 96.5967 76.538 96.8581C76.9967 97.1194 77.3487 97.5007 77.594 98.0021C77.8393 98.4981 77.962 99.0981 77.962 99.8021V104.914H76.794V100.026C76.794 99.1781 76.5967 98.5301 76.202 98.0821C75.8073 97.6341 75.25 97.4101 74.53 97.4101C74.0287 97.4101 73.5993 97.5114 73.242 97.7141C72.89 97.9167 72.618 98.1834 72.426 98.5141C72.234 98.8394 72.138 99.1941 72.138 99.5781V104.914H70.97ZM85.1633 105.17C84.3099 105.17 83.5393 104.986 82.8513 104.618C82.1686 104.25 81.6273 103.738 81.2273 103.082C80.8273 102.426 80.6273 101.671 80.6273 100.818C80.6273 99.9594 80.8273 99.2047 81.2273 98.5541C81.6273 97.8981 82.1686 97.3861 82.8513 97.0181C83.5339 96.6501 84.3046 96.4661 85.1633 96.4661C86.0166 96.4661 86.7846 96.6501 87.4673 97.0181C88.1553 97.3861 88.6993 97.8981 89.0993 98.5541C89.4993 99.2047 89.6993 99.9594 89.6993 100.818C89.6993 101.671 89.4993 102.426 89.0993 103.082C88.6993 103.738 88.1553 104.25 87.4673 104.618C86.7846 104.986 86.0166 105.17 85.1633 105.17ZM85.1633 104.13C85.8033 104.13 86.3739 103.989 86.8753 103.706C87.3766 103.423 87.7713 103.034 88.0593 102.538C88.3473 102.037 88.4913 101.463 88.4913 100.818C88.4913 100.173 88.3473 99.6021 88.0593 99.1061C87.7713 98.6047 87.3766 98.2127 86.8753 97.9301C86.3739 97.6474 85.8033 97.5061 85.1633 97.5061C84.5233 97.5061 83.9526 97.6474 83.4513 97.9301C82.9499 98.2127 82.5553 98.6047 82.2673 99.1061C81.9793 99.6021 81.8353 100.173 81.8353 100.818C81.8353 101.458 81.9793 102.029 82.2673 102.53C82.5553 103.031 82.9499 103.423 83.4513 103.706C83.9526 103.989 84.5233 104.13 85.1633 104.13ZM92.4856 109.074V96.7221H93.6536V98.4181C93.9843 97.8047 94.4456 97.3274 95.0376 96.9861C95.635 96.6394 96.2963 96.4661 97.0216 96.4661C97.8056 96.4661 98.507 96.6554 99.1256 97.0341C99.7443 97.4127 100.232 97.9301 100.59 98.5861C100.947 99.2367 101.126 99.9807 101.126 100.818C101.126 101.645 100.947 102.389 100.59 103.05C100.238 103.706 99.7523 104.223 99.1336 104.602C98.5203 104.981 97.8216 105.17 97.0376 105.17C96.323 105.17 95.667 104.994 95.0696 104.642C94.4723 104.29 94.0003 103.805 93.6536 103.186V109.074H92.4856ZM96.7656 104.154C97.379 104.154 97.923 104.013 98.3976 103.73C98.8723 103.442 99.243 103.047 99.5096 102.546C99.7816 102.045 99.9176 101.471 99.9176 100.826C99.9176 100.175 99.7816 99.5994 99.5096 99.0981C99.2376 98.5914 98.8643 98.1967 98.3896 97.9141C97.9203 97.6261 97.379 97.4821 96.7656 97.4821C96.1523 97.4821 95.6083 97.6261 95.1336 97.9141C94.659 98.1967 94.2856 98.5887 94.0136 99.0901C93.7416 99.5914 93.6056 100.167 93.6056 100.818C93.6056 101.463 93.7416 102.039 94.0136 102.546C94.2856 103.047 94.659 103.442 95.1336 103.73C95.6136 104.013 96.1576 104.154 96.7656 104.154Z" fill="#343A3F"/>
<defs>
<clipPath id="clip0_422_15128">
<rect width="59.39" height="57" fill="white" transform="translate(27.3047 3.5)"/>
</clipPath>
</defs>
</svg>
