<svg width="114" height="112" viewBox="0 0 114 112" fill="none" xmlns="http://www.w3.org/2000/svg">
<path d="M37.1738 12.1748C37.1738 6.70278 41.6149 2.26172 47.0869 2.26172H57V22.0879H47.0869C41.6149 22.0879 37.1738 17.6468 37.1738 12.1748Z" fill="#F24E1E"/>
<path d="M57 2.26172H66.9131C72.3851 2.26172 76.8262 6.70278 76.8262 12.1748C76.8262 17.6468 72.3851 22.0879 66.9131 22.0879H57V2.26172Z" fill="#FF7262"/>
<path d="M37.1738 31.999C37.1738 26.527 41.6149 22.0859 47.0869 22.0859H57V41.9121H47.0869C41.6149 41.9121 37.1738 37.471 37.1738 31.999Z" fill="#A259FF"/>
<path d="M76.8262 31.999C76.8262 37.471 72.3851 41.9121 66.9131 41.9121C61.4411 41.9121 57 37.471 57 31.999C57 26.527 61.4411 22.0859 66.9131 22.0859C72.3851 22.0859 76.8262 26.527 76.8262 31.999Z" fill="#1ABCFE"/>
<path d="M47.0869 61.7402C52.5589 61.7402 57 57.2992 57 51.8271V41.9141H47.0869C41.6149 41.9141 37.1738 46.3551 37.1738 51.8271C37.1738 57.2992 41.6149 61.7402 47.0869 61.7402Z" fill="#0ACF83"/>
<path d="M32.4176 104.914V91.7141H39.0976V92.7861H33.1536L33.6336 92.4261V98.4821L33.1536 97.7621H38.7296V98.8341H33.1536L33.6336 98.1141V104.914H32.4176ZM41.9308 104.914V96.7221H43.0988V104.914H41.9308ZM42.5228 95.0821C42.3788 95.0821 42.2481 95.0474 42.1308 94.9781C42.0188 94.9087 41.9281 94.8154 41.8588 94.6981C41.7894 94.5807 41.7548 94.4527 41.7548 94.3141C41.7548 94.1754 41.7894 94.0501 41.8588 93.9381C41.9281 93.8207 42.0188 93.7274 42.1308 93.6581C42.2481 93.5887 42.3788 93.5541 42.5228 93.5541C42.6614 93.5541 42.7868 93.5887 42.8988 93.6581C43.0108 93.7274 43.1014 93.8181 43.1708 93.9301C43.2454 94.0421 43.2828 94.1701 43.2828 94.3141C43.2828 94.4527 43.2454 94.5807 43.1708 94.6981C43.1014 94.8154 43.0108 94.9087 42.8988 94.9781C42.7868 95.0474 42.6614 95.0821 42.5228 95.0821ZM50.1641 109.314C49.1295 109.314 48.2548 109.111 47.5401 108.706C46.8255 108.301 46.2948 107.709 45.9481 106.93L46.9321 106.474C47.1828 107.039 47.5988 107.487 48.1801 107.818C48.7615 108.154 49.4228 108.322 50.1641 108.322C50.7881 108.322 51.3455 108.197 51.8361 107.946C52.3321 107.701 52.7215 107.343 53.0041 106.874C53.2921 106.405 53.4361 105.842 53.4361 105.186V103.186C53.0948 103.805 52.6255 104.29 52.0281 104.642C51.4361 104.994 50.7748 105.17 50.0441 105.17C49.2815 105.17 48.5908 104.983 47.9721 104.61C47.3588 104.237 46.8708 103.722 46.5081 103.066C46.1508 102.41 45.9721 101.661 45.9721 100.818C45.9721 99.9807 46.1508 99.2367 46.5081 98.5861C46.8655 97.9301 47.3508 97.4127 47.9641 97.0341C48.5828 96.6554 49.2841 96.4661 50.0681 96.4661C50.7935 96.4661 51.4521 96.6394 52.0441 96.9861C52.6415 97.3327 53.1055 97.8127 53.4361 98.4261V96.7221H54.6041V105.138C54.6041 106.045 54.4255 106.807 54.0681 107.426C53.7108 108.05 53.1988 108.519 52.5321 108.834C51.8708 109.154 51.0815 109.314 50.1641 109.314ZM50.3241 104.154C50.9428 104.154 51.4895 104.013 51.9641 103.73C52.4388 103.442 52.8121 103.047 53.0841 102.546C53.3561 102.039 53.4921 101.466 53.4921 100.826C53.4921 100.175 53.3561 99.5994 53.0841 99.0981C52.8121 98.5914 52.4388 98.1967 51.9641 97.9141C51.4895 97.6261 50.9455 97.4821 50.3321 97.4821C49.7188 97.4821 49.1748 97.6261 48.7001 97.9141C48.2255 98.1967 47.8521 98.5914 47.5801 99.0981C47.3081 99.5994 47.1721 100.175 47.1721 100.826C47.1721 101.466 47.3055 102.039 47.5721 102.546C47.8441 103.047 48.2175 103.442 48.6921 103.73C49.1721 104.013 49.7161 104.154 50.3241 104.154ZM58.0481 104.914V96.7221H59.2161V97.8421C59.5415 97.3887 59.9308 97.0474 60.3841 96.8181C60.8375 96.5834 61.3441 96.4661 61.9041 96.4661C62.5761 96.4661 63.1601 96.6207 63.6561 96.9301C64.1575 97.2394 64.5041 97.6607 64.6961 98.1941C65.0108 97.6714 65.4108 97.2527 65.8961 96.9381C66.3868 96.6234 66.9681 96.4661 67.6401 96.4661C68.2215 96.4661 68.7388 96.5861 69.1921 96.8261C69.6455 97.0607 70.0001 97.4074 70.2561 97.8661C70.5175 98.3194 70.6481 98.8741 70.6481 99.5301V104.914H69.4801V99.8581C69.4801 99.1114 69.2855 98.5194 68.8961 98.0821C68.5068 97.6447 67.9868 97.4261 67.3361 97.4261C66.8881 97.4261 66.4828 97.5247 66.1201 97.7221C65.7575 97.9194 65.4695 98.1754 65.2561 98.4901C65.0428 98.7994 64.9361 99.1194 64.9361 99.4501V104.914H63.7681V99.7381C63.7681 99.0287 63.5735 98.4661 63.1841 98.0501C62.8001 97.6341 62.2908 97.4261 61.6561 97.4261C61.2081 97.4261 60.7975 97.5221 60.4241 97.7141C60.0561 97.9007 59.7628 98.1434 59.5441 98.4421C59.3255 98.7407 59.2161 99.0474 59.2161 99.3621V104.914H58.0481ZM77.4504 105.17C76.6824 105.17 75.989 104.983 75.3704 104.61C74.757 104.231 74.269 103.714 73.9064 103.058C73.549 102.402 73.3704 101.653 73.3704 100.81C73.3704 99.9781 73.5464 99.2367 73.8984 98.5861C74.2557 97.9301 74.741 97.4127 75.3544 97.0341C75.973 96.6554 76.6717 96.4661 77.4504 96.4661C78.1917 96.4661 78.8637 96.6394 79.4664 96.9861C80.069 97.3327 80.5277 97.8127 80.8424 98.4261V96.7221H82.0104V104.914H80.8424V103.186C80.4904 103.805 80.0184 104.29 79.4264 104.642C78.8344 104.994 78.1757 105.17 77.4504 105.17ZM77.7384 104.154C78.3517 104.154 78.893 104.013 79.3624 103.73C79.837 103.442 80.2104 103.047 80.4824 102.546C80.7544 102.039 80.8904 101.463 80.8904 100.818C80.8904 100.167 80.7544 99.5914 80.4824 99.0901C80.2157 98.5887 79.845 98.1967 79.3704 97.9141C78.8957 97.6261 78.3517 97.4821 77.7384 97.4821C77.125 97.4821 76.581 97.6261 76.1064 97.9141C75.6317 98.1967 75.2584 98.5887 74.9864 99.0901C74.7144 99.5914 74.5784 100.167 74.5784 100.818C74.5784 101.463 74.7144 102.039 74.9864 102.546C75.2584 103.047 75.6317 103.442 76.1064 103.73C76.581 104.013 77.125 104.154 77.7384 104.154Z" fill="#343A3F"/>
</svg>
