<svg width="114" height="112" viewBox="0 0 114 112" fill="none" xmlns="http://www.w3.org/2000/svg">
<g clip-path="url(#clip0_422_15135)">
<path d="M37.8211 3.50391H76.1786C81.9941 3.50391 86.696 8.13116 86.696 13.8543V50.1418C86.696 55.865 81.9941 60.4922 76.1786 60.4922H37.8211C32.0056 60.4922 27.3037 55.865 27.3037 50.1418V13.8543C27.3037 8.13116 32.0056 3.50391 37.8211 3.50391Z" fill="#330000"/>
<path d="M56.0104 37.6004H46.8046L44.9239 43.3236C44.8744 43.5428 44.6764 43.6889 44.4537 43.6645H39.8013C39.5291 43.6645 39.4548 43.5184 39.5291 43.2262L47.4975 20.65C47.5718 20.4065 47.646 20.1386 47.745 19.8463C47.844 19.3349 47.8935 18.7991 47.8935 18.2633C47.8687 18.1416 47.9677 18.0198 48.0915 17.9954H54.5009C54.6988 17.9954 54.7978 18.0685 54.8226 18.1903L63.8552 43.2749C63.9294 43.5428 63.8552 43.6645 63.6077 43.6645H58.4356C58.2624 43.6889 58.0892 43.5671 58.0397 43.3966L56.0104 37.6004ZM48.2399 32.6565H54.5256C54.3771 32.1451 54.1792 31.5362 53.9564 30.903C53.7337 30.2455 53.511 29.5392 53.2883 28.8086C53.0408 28.0536 52.8181 27.323 52.5706 26.568C52.3232 25.8131 52.1004 25.1068 51.9025 24.4005C51.7045 23.7186 51.5313 23.0854 51.358 22.5009H51.3085C51.0858 23.5481 50.8136 24.5954 50.4671 25.6426C50.0959 26.8116 49.7247 28.0293 49.3288 29.247C48.9823 30.489 48.6111 31.6337 48.2399 32.6565ZM69.3737 22.2574C68.557 22.2817 67.7652 21.9651 67.1712 21.405C66.6021 20.7961 66.3051 19.9925 66.3298 19.1644C66.3051 18.3364 66.6268 17.5571 67.2207 16.9969C67.8146 16.4368 68.6065 16.1445 69.4232 16.1445C70.3883 16.1445 71.1307 16.4368 71.6751 16.9969C72.2196 17.5814 72.5165 18.3607 72.4918 19.1644C72.5165 19.9925 72.2196 20.7961 71.6256 21.405C71.0565 21.9895 70.2151 22.3061 69.3737 22.2574ZM66.602 43.3966V24.6441C66.602 24.4005 66.701 24.3031 66.9238 24.3031H71.8236C72.0463 24.3031 72.1453 24.4249 72.1453 24.6441V43.3966C72.1453 43.6645 72.0463 43.7863 71.8236 43.7863H66.9733C66.7258 43.7863 66.602 43.6402 66.602 43.3966Z" fill="#FF9A00"/>
</g>
<path d="M29.9098 104.914V91.7141H33.3338C34.1978 91.7141 34.9445 91.8634 35.5738 92.1621C36.2031 92.4607 36.6885 92.8874 37.0298 93.4421C37.3765 93.9967 37.5498 94.6634 37.5498 95.4421C37.5498 96.2154 37.3765 96.8954 37.0298 97.4821C36.6885 98.0634 36.2031 98.5167 35.5738 98.8421C34.9445 99.1621 34.1978 99.3221 33.3338 99.3221H31.1258V104.914H29.9098ZM31.1258 98.2981H33.0458C33.7071 98.2981 34.2805 98.1834 34.7658 97.9541C35.2565 97.7247 35.6351 97.3994 35.9018 96.9781C36.1685 96.5514 36.3018 96.0501 36.3018 95.4741C36.3018 94.8874 36.1685 94.3887 35.9018 93.9781C35.6351 93.5621 35.2565 93.2474 34.7658 93.0341C34.2805 92.8154 33.7071 92.7061 33.0458 92.7061H31.1258V98.2981ZM41.0012 109.074L43.0172 104.714L39.1212 96.7221H40.4412L43.6812 103.514L46.6252 96.7221H47.9452L42.3212 109.074H41.0012ZM52.2366 105.17C51.6232 105.17 51.1459 104.965 50.8046 104.554C50.4686 104.138 50.3006 103.554 50.3006 102.802V97.6021H49.4686V96.7221H50.3006V93.6581H51.4686V96.7221H53.5086V97.6021H51.4686V102.738C51.4686 103.191 51.5566 103.538 51.7326 103.778C51.9086 104.018 52.1592 104.138 52.4846 104.138C52.7992 104.138 53.0766 104.05 53.3166 103.874L53.6126 104.802C53.4312 104.914 53.2179 105.002 52.9726 105.066C52.7272 105.135 52.4819 105.17 52.2366 105.17ZM56.1653 104.914V91.1461H57.3333V97.8421C57.5573 97.4581 57.904 97.1327 58.3733 96.8661C58.8426 96.5994 59.416 96.4661 60.0933 96.4661C60.728 96.4661 61.2746 96.5967 61.7333 96.8581C62.192 97.1194 62.544 97.5007 62.7893 98.0021C63.0346 98.4981 63.1573 99.0981 63.1573 99.8021V104.914H61.9893V100.026C61.9893 99.1781 61.792 98.5301 61.3973 98.0821C61.0026 97.6341 60.4453 97.4101 59.7253 97.4101C59.224 97.4101 58.7946 97.5114 58.4373 97.7141C58.0853 97.9167 57.8133 98.1834 57.6213 98.5141C57.4293 98.8394 57.3333 99.1941 57.3333 99.5781V104.914H56.1653ZM70.3586 105.17C69.5052 105.17 68.7346 104.986 68.0466 104.618C67.3639 104.25 66.8226 103.738 66.4226 103.082C66.0226 102.426 65.8226 101.671 65.8226 100.818C65.8226 99.9594 66.0226 99.2047 66.4226 98.5541C66.8226 97.8981 67.3639 97.3861 68.0466 97.0181C68.7292 96.6501 69.4999 96.4661 70.3586 96.4661C71.2119 96.4661 71.9799 96.6501 72.6626 97.0181C73.3506 97.3861 73.8946 97.8981 74.2946 98.5541C74.6946 99.2047 74.8946 99.9594 74.8946 100.818C74.8946 101.671 74.6946 102.426 74.2946 103.082C73.8946 103.738 73.3506 104.25 72.6626 104.618C71.9799 104.986 71.2119 105.17 70.3586 105.17ZM70.3586 104.13C70.9986 104.13 71.5692 103.989 72.0706 103.706C72.5719 103.423 72.9666 103.034 73.2546 102.538C73.5426 102.037 73.6866 101.463 73.6866 100.818C73.6866 100.173 73.5426 99.6021 73.2546 99.1061C72.9666 98.6047 72.5719 98.2127 72.0706 97.9301C71.5692 97.6474 70.9986 97.5061 70.3586 97.5061C69.7186 97.5061 69.1479 97.6474 68.6466 97.9301C68.1452 98.2127 67.7506 98.6047 67.4626 99.1061C67.1746 99.6021 67.0306 100.173 67.0306 100.818C67.0306 101.458 67.1746 102.029 67.4626 102.53C67.7506 103.031 68.1452 103.423 68.6466 103.706C69.1479 103.989 69.7186 104.13 70.3586 104.13ZM77.6809 104.914V96.7221H78.8489V97.8421C79.0729 97.4581 79.4196 97.1327 79.8889 96.8661C80.3583 96.5994 80.9316 96.4661 81.6089 96.4661C82.2436 96.4661 82.7903 96.5967 83.2489 96.8581C83.7076 97.1194 84.0596 97.5007 84.3049 98.0021C84.5503 98.4981 84.6729 99.0981 84.6729 99.8021V104.914H83.5049V100.026C83.5049 99.1781 83.3076 98.5327 82.9129 98.0901C82.5183 97.6421 81.9609 97.4181 81.2409 97.4181C80.7396 97.4181 80.3103 97.5194 79.9529 97.7221C79.6009 97.9194 79.3289 98.1834 79.1369 98.5141C78.9449 98.8394 78.8489 99.1941 78.8489 99.5781V104.914H77.6809Z" fill="#343A3F"/>
<defs>
<clipPath id="clip0_422_15135">
<rect width="59.3923" height="57" fill="white" transform="translate(27.3037 3.5)"/>
</clipPath>
</defs>
</svg>
